<svg version="1.1" xmlns="http://www.w3.org/2000/svg" style="display: block;" viewBox="0 0 2048 2048" width="1024" height="1024">
<defs>
	<linearGradient id="Gradient1" gradientUnits="userSpaceOnUse" x1="1477.01" y1="1424.81" x2="1515.78" y2="1438.36">
		<stop class="stop0" offset="0" stop-opacity="1" stop-color="rgb(11,11,19)"/>
		<stop class="stop1" offset="1" stop-opacity="1" stop-color="rgb(24,35,55)"/>
	</linearGradient>
	<linearGradient id="Gradient2" gradientUnits="userSpaceOnUse" x1="1197.99" y1="1379.27" x2="1182.82" y2="1433.83">
		<stop class="stop0" offset="0" stop-opacity="1" stop-color="rgb(0,0,0)"/>
		<stop class="stop1" offset="1" stop-opacity="1" stop-color="rgb(11,21,38)"/>
	</linearGradient>
	<linearGradient id="Gradient3" gradientUnits="userSpaceOnUse" x1="1082.77" y1="1413.21" x2="1142.82" y2="1407.3">
		<stop class="stop0" offset="0" stop-opacity="1" stop-color="rgb(0,0,0)"/>
		<stop class="stop1" offset="1" stop-opacity="1" stop-color="rgb(6,15,34)"/>
	</linearGradient>
	<linearGradient id="Gradient4" gradientUnits="userSpaceOnUse" x1="1283.95" y1="1381.15" x2="1248.88" y2="1443.37">
		<stop class="stop0" offset="0" stop-opacity="1" stop-color="rgb(0,2,10)"/>
		<stop class="stop1" offset="1" stop-opacity="1" stop-color="rgb(18,31,52)"/>
	</linearGradient>
</defs>
<path transform="translate(0,0)" fill="rgb(0,0,0)" d="M 1467.65 1444.56 C 1465.96 1442.28 1464.96 1439.95 1465.19 1437.15 L 1467.06 1436.16 C 1471.33 1436.28 1473.86 1438.15 1477.39 1440.38 C 1474.12 1441.9 1470.59 1442.45 1467.65 1444.56 z"/>
<path transform="translate(0,0)" fill="rgb(0,0,0)" d="M 1211.79 1439.48 L 1219.74 1450.71 C 1215.2 1450.41 1210.75 1450.74 1207.49 1447.04 C 1206.45 1445.86 1205.48 1444.61 1204.52 1443.36 C 1206.98 1442.22 1209.4 1440.77 1211.79 1439.48 z"/>
<path transform="translate(0,0)" fill="rgb(0,0,0)" d="M 1421.86 1383.54 C 1417.21 1384.23 1411.16 1384.7 1406.5 1384.17 C 1403.43 1383.81 1400 1382.9 1398.07 1380.36 L 1398.53 1378.94 C 1404.49 1374.64 1413.06 1376.1 1420 1376.34 C 1420.47 1376.51 1420.94 1376.69 1421.42 1376.85 C 1423.78 1377.65 1426.24 1377.58 1428.71 1377.62 L 1426.89 1378.49 C 1423.89 1379.96 1423.02 1380.38 1421.86 1383.54 z"/>
<path transform="translate(0,0)" fill="rgb(28,53,66)" d="M 1328.99 1635.32 C 1344.09 1647.71 1357.72 1663.73 1369.13 1679.59 C 1355.55 1669.22 1341.14 1659.41 1328.02 1648.52 C 1336.73 1649.31 1341.48 1659.16 1349.46 1660.33 C 1348.29 1650.9 1331.38 1644.69 1328.99 1635.32 z"/>
<path transform="translate(0,0)" fill="rgb(28,53,66)" d="M 840.136 639.45 L 842.872 641.829 C 845.819 657.426 849.179 672.837 852.634 688.324 L 851.288 688.873 C 848.417 679.977 845.252 654.881 840.679 649.212 C 841.605 658.1 847.426 699.309 845.34 705.382 C 841.543 692.972 836.198 650.499 840.136 639.45 z"/>
<path transform="translate(0,0)" fill="rgb(7,9,20)" d="M 1420 1376.34 C 1431.72 1376.34 1446.54 1374.63 1457.84 1377.57 L 1459.29 1379.13 C 1458.43 1381.88 1458.4 1382.33 1455.58 1383.6 C 1450.14 1386.04 1439.15 1384.03 1433 1383.99 C 1430.79 1383.79 1427.25 1383.12 1425.31 1384.42 C 1424.91 1384.69 1424.6 1385.06 1424.25 1385.38 L 1423.64 1385.44 L 1421.86 1383.54 C 1423.02 1380.38 1423.89 1379.96 1426.89 1378.49 L 1428.71 1377.62 C 1426.24 1377.58 1423.78 1377.65 1421.42 1376.85 C 1420.94 1376.69 1420.47 1376.51 1420 1376.34 z"/>
<path transform="translate(0,0)" fill="rgb(179,29,31)" d="M 568.174 958.599 C 557.934 954.875 514.574 934.584 508.709 927.103 L 508.926 925.445 L 510.352 925.361 L 510.224 926.898 L 509.19 925.241 C 515.334 926.519 521.955 930.967 527.889 933.423 C 543.391 939.839 559.31 945.506 575.055 951.305 C 574.553 951.417 574.056 951.554 573.55 951.64 C 566.452 952.844 542.704 940.415 533.263 938.574 C 537.294 946.301 562.119 949.912 568.174 958.599 z"/>
<path transform="translate(0,0)" fill="rgb(179,29,31)" d="M 676.495 896.188 C 664.88 874.406 646.823 823.932 650.051 799.686 C 654.001 804.886 655.803 820.401 658.402 827.453 C 665.702 847.264 675.568 865.648 685.463 884.235 C 685.028 883.971 684.579 883.729 684.157 883.445 C 677.68 879.09 665.701 851.125 662.194 842.844 C 660.171 838.068 659.248 830.04 655.643 826.446 L 654.696 826.837 C 655.318 844.833 676.707 886.768 676.495 896.188 z"/>
<path transform="translate(0,0)" fill="rgb(8,17,35)" d="M 1423.64 1385.44 L 1424.25 1385.38 C 1424.6 1385.06 1424.91 1384.69 1425.31 1384.42 C 1427.25 1383.12 1430.79 1383.79 1433 1383.99 C 1433.05 1395.25 1435.26 1441.38 1431.42 1448.95 C 1428.72 1449.98 1428.43 1449.88 1425.58 1449.23 C 1424.87 1448.5 1423.97 1447.91 1423.45 1447.04 C 1421.91 1444.45 1422.99 1399.05 1423.08 1393.4 C 1423.12 1390.7 1423.29 1388.12 1423.64 1385.44 z"/>
<path transform="translate(0,0)" fill="rgb(0,0,0)" d="M 1489.14 1416.7 C 1484.84 1415.99 1479.97 1414.93 1476.05 1412.99 C 1471.38 1410.69 1467.33 1406.8 1465.82 1401.7 C 1464.37 1396.79 1465.4 1391.49 1468.07 1387.19 C 1471.79 1381.22 1478.11 1377.61 1484.84 1376.07 C 1491.28 1374.59 1508.14 1374.76 1513.48 1379.44 C 1515.43 1381.15 1515.46 1382.22 1515.63 1384.59 C 1514.72 1385.63 1514.33 1386.57 1512.88 1386.84 C 1505.15 1388.25 1495.49 1382.21 1483.53 1385.26 C 1480.35 1386.07 1477.36 1387.61 1475.99 1390.79 C 1474.79 1393.56 1474.71 1398.53 1476.28 1401.15 C 1479.16 1405.97 1488.45 1407.36 1493.51 1408.62 C 1491.73 1411.28 1490.13 1413.62 1489.14 1416.7 z"/>
<path transform="translate(0,0)" fill="url(#Gradient1)" d="M 1493.51 1408.62 C 1502.56 1410.46 1512.97 1412.84 1518.49 1421.01 A 15.0191 15.0191 0 0 1 1520.48 1433.31 C 1518.86 1439.29 1514.27 1444.03 1508.88 1446.87 C 1498.74 1452.22 1485.66 1451.37 1475.08 1447.64 C 1472.56 1446.75 1470.1 1445.65 1467.65 1444.56 C 1470.59 1442.45 1474.12 1441.9 1477.39 1440.38 C 1485.78 1442.32 1494.63 1442.97 1502.81 1439.76 C 1506.3 1438.38 1509.91 1436.07 1511.19 1432.38 C 1511.92 1430.29 1511.21 1428.4 1510.05 1426.61 C 1505.87 1420.17 1496.07 1418.24 1489.14 1416.7 C 1490.13 1413.62 1491.73 1411.28 1493.51 1408.62 z"/>
<path transform="translate(0,0)" fill="rgb(8,17,35)" d="M 1168.6 1427.49 C 1166.52 1433.83 1169.25 1441.25 1167.82 1447.74 C 1167.45 1449.46 1167.73 1449.37 1165.79 1450.23 C 1163.92 1451.06 1160.59 1450.92 1158.78 1450.18 C 1157.01 1438.42 1157.22 1390.16 1158.46 1377.63 C 1161.19 1376.05 1163.09 1376.52 1166.2 1376.58 C 1167.16 1377.37 1168.89 1378.44 1169.59 1379.39 C 1169.96 1379.89 1170.88 1383.18 1171.14 1383.29 C 1173.55 1384.33 1177.47 1382.81 1179.73 1384.72 L 1168.04 1384.95 C 1167.9 1395.73 1166.84 1407.34 1168.32 1418.01 C 1171.27 1419.99 1175.18 1419.77 1178.69 1419.87 C 1176.24 1420.64 1174.02 1420.75 1172.45 1422.87 C 1174.16 1424.96 1174.96 1425.13 1177.36 1426.22 C 1174.44 1426.73 1171.55 1427.15 1168.6 1427.49 z"/>
<path transform="translate(0,0)" fill="url(#Gradient2)" d="M 1166.2 1376.58 C 1179.9 1376.56 1199.88 1374.09 1210.57 1384.3 C 1215.59 1389.08 1217.65 1395.84 1217.44 1402.66 C 1217.25 1408.93 1214.79 1415.69 1210.18 1420.07 C 1207.61 1422.52 1204.59 1423.98 1201.39 1425.44 L 1211.79 1439.48 C 1209.4 1440.77 1206.98 1442.22 1204.52 1443.36 C 1200.55 1438.38 1196.54 1433.48 1193.1 1428.11 C 1184.92 1428.09 1176.75 1428.15 1168.6 1427.49 C 1171.55 1427.15 1174.44 1426.73 1177.36 1426.22 C 1174.96 1425.13 1174.16 1424.96 1172.45 1422.87 C 1174.02 1420.75 1176.24 1420.64 1178.69 1419.87 C 1188.35 1418.06 1195.34 1420.7 1203.88 1413.4 C 1206.83 1410.88 1208.46 1407.73 1208.62 1403.84 C 1208.78 1399.63 1205.94 1394.94 1203.05 1392.09 C 1196.15 1385.3 1188.82 1384.93 1179.73 1384.72 C 1177.47 1382.81 1173.55 1384.33 1171.14 1383.29 C 1170.88 1383.18 1169.96 1379.89 1169.59 1379.39 C 1168.89 1378.44 1167.16 1377.37 1166.2 1376.58 z"/>
<path transform="translate(0,0)" fill="rgb(0,0,0)" d="M 1042.26 1376.38 A 54.7612 54.7612 0 0 1 1056.79 1377.84 C 1061.1 1378.85 1064.7 1379.92 1067.08 1383.81 L 1066.46 1386.35 C 1060.8 1390.09 1050.56 1385.35 1044.09 1384.62 A 18.918 18.918 0 0 0 1029.58 1389.08 C 1027.5 1390.84 1026.4 1393.9 1026.52 1396.59 C 1026.99 1407.9 1057.6 1410.57 1068.08 1420.66 C 1070.77 1423.25 1072.56 1426.23 1072.48 1430.07 C 1072.37 1435.18 1068.24 1441.05 1064.66 1444.43 C 1057.77 1450.92 1048.91 1450.96 1040.06 1450.57 A 188.179 188.179 0 0 1 1036.78 1450.18 C 1029.74 1449.24 1020.62 1447.29 1016.11 1441.38 C 1015.83 1438.71 1016.04 1438.55 1017.4 1436.2 C 1020.84 1434.94 1032.7 1440.72 1037.45 1441.48 C 1043.12 1442.38 1052.53 1442.62 1057.12 1438.39 C 1059.92 1435.81 1060.98 1433.11 1061.23 1429.4 C 1057.66 1419.3 1032.96 1417.3 1024 1411.15 C 1020.13 1408.49 1017.12 1404.81 1016.35 1400.08 C 1015.59 1395.35 1017.2 1388.63 1020.13 1384.83 C 1024.95 1378.58 1034.93 1377.18 1042.26 1376.38 z"/>
<path transform="translate(0,0)" fill="rgb(8,17,35)" d="M 1322.13 1375.62 C 1324.33 1375.61 1326.98 1375.37 1329.13 1375.77 C 1329.18 1375.78 1331.68 1376.44 1331.96 1376.86 C 1335.5 1382.23 1327.35 1420 1335.85 1432.92 C 1338.98 1437.67 1344.37 1441.25 1349.98 1442.22 A 20.7141 20.7141 0 0 0 1365.53 1438.6 C 1382.3 1426.69 1372.85 1394.79 1375.66 1377.06 C 1376.53 1376.56 1376.85 1376.3 1377.95 1376.1 C 1380.48 1375.63 1383.54 1375.76 1385.63 1377.15 L 1385.66 1380.75 C 1385.28 1397.13 1390.42 1425.29 1379.12 1438.53 C 1372.86 1445.86 1363.66 1449.57 1354.16 1449.99 C 1345.67 1450.37 1336.73 1448.45 1330.49 1442.33 C 1317.89 1429.98 1322.16 1392.82 1322.13 1375.62 z"/>
<path transform="translate(0,0)" fill="rgb(19,82,39)" d="M 763.744 1375.43 C 770.402 1375.37 777.095 1375.82 783.747 1376.11 A 3523.06 3523.06 0 0 0 783.984 1435.1 C 796.423 1435.03 809.586 1434.3 821.847 1436.55 L 821.7 1452.02 L 763.641 1451.97 C 763.161 1439.71 761.103 1383.49 763.744 1375.43 z"/>
<path transform="translate(0,0)" fill="rgb(19,82,39)" d="M 919.791 469.581 C 922.276 469.765 923.524 470.269 925.427 471.941 C 935.027 480.37 939.683 499.205 939.737 511.624 C 939.809 528.038 928.985 542.016 917.845 553.097 C 918.168 537.7 921.375 513.051 918.547 498.675 C 913.006 516.205 912.064 534.662 910.503 552.854 C 908.757 551.175 906.944 549.477 905.402 547.604 C 896.448 536.723 892.283 523.046 893.997 509.037 C 896.161 491.357 906.54 480.14 919.791 469.581 z"/>
<path transform="translate(0,0)" fill="rgb(179,29,31)" d="M 1303.6 811.347 C 1303.92 811.519 1304.26 811.677 1304.58 811.865 C 1317.56 819.556 1327.81 832.623 1331.44 847.268 C 1336.04 865.814 1329.95 881.356 1320.71 897.015 C 1315.92 883.006 1312.9 867.822 1309.18 853.475 L 1308.46 852.086 L 1307.44 853.288 C 1305.68 868.04 1309.21 882.013 1312.62 896.271 C 1300.71 887.704 1290.71 877.026 1287.94 862.02 C 1284.41 842.86 1293.18 826.561 1303.6 811.347 z"/>
<path transform="translate(0,0)" fill="rgb(179,29,31)" d="M 746.401 813.822 C 747.243 813.992 747.604 813.998 748.374 814.427 C 755.164 818.21 760.886 829.789 763.14 836.817 C 767.023 848.929 766.759 861.49 760.761 872.893 C 754.72 884.377 745.266 890.596 733.328 894.582 C 740.241 881.937 744.417 870.398 747.083 856.213 C 747.496 854.182 747.63 852.165 747.8 850.102 C 746.026 850.775 744.805 856.029 744.112 858.002 C 739.89 870.019 734.167 881.24 728.254 892.483 C 720.321 879.49 716.382 864.792 719.628 849.575 C 722.985 833.84 733.301 822.323 746.401 813.822 z"/>
<path transform="translate(0,0)" fill="rgb(19,82,39)" d="M 999.884 768.862 A 61.3933 61.3933 0 0 1 1008.52 769.926 C 1022.1 772.718 1033.69 780.632 1040.83 792.595 C 1049.76 807.547 1050.22 823.556 1046.2 840.061 C 1034.53 827.45 1025.44 810.94 1016.25 796.485 L 1015.93 796.05 L 1015.28 796.518 C 1017.81 804.408 1021.77 812.777 1025.64 820.102 C 1029.01 826.488 1035.14 832.613 1036.15 839.927 L 1034.89 841.561 C 1033.5 841.642 1033.33 841.723 1031.74 841.399 C 1020.86 839.184 1005.82 826.373 1000.66 817.114 C 991.875 801.352 994.947 785.084 999.884 768.862 z"/>
<path transform="translate(0,0)" fill="rgb(19,82,39)" d="M 822.138 1376.42 C 828.845 1376.08 835.544 1376.3 842.253 1376.45 C 849.584 1393.83 856.015 1411.58 863.437 1428.96 C 870.964 1411.58 877.652 1393.8 885.006 1376.34 C 891.246 1376.07 897.581 1376.35 903.83 1376.41 L 896.781 1394.77 C 889.238 1413.84 882.587 1433.62 873.356 1451.95 C 865.789 1452.17 858.189 1451.93 850.619 1451.83 C 844.526 1439.82 823.075 1387.53 822.138 1376.42 z"/>
<path transform="translate(0,0)" fill="rgb(179,29,31)" d="M 1360.19 739.649 C 1363.33 741.239 1365.37 743.735 1367.53 746.459 C 1379.02 760.986 1385.9 780.567 1383.55 799.075 C 1382.26 809.24 1378.36 826.476 1369.93 832.968 L 1368.33 832.661 C 1360.66 821.138 1359.63 793.575 1358.02 779.483 L 1357.03 778.964 C 1352.72 797.876 1354.79 815.91 1357.54 834.848 C 1355.86 833.555 1354.16 832.228 1352.66 830.725 C 1341.35 819.431 1335.66 801.848 1336.29 786.094 C 1337.05 767.015 1346.54 752.309 1360.19 739.649 z"/>
<path transform="translate(0,0)" fill="rgb(42,120,52)" d="M 1097.69 471.798 C 1101.14 472.598 1104.68 473.366 1108.01 474.6 A 57.147 57.147 0 0 1 1141.14 506.028 C 1148.41 523.108 1145.2 538.481 1138.35 554.812 C 1131.16 535.828 1122.98 517.823 1113.01 500.127 L 1112.32 499.8 C 1112.64 511.313 1125.9 544.793 1131.07 556.375 C 1127.53 555.383 1124.07 554.24 1120.75 552.632 C 1107.75 546.336 1096.51 534.028 1092.32 520.2 C 1087.89 505.587 1090.68 485.245 1097.69 471.798 z"/>
<path transform="translate(0,0)" fill="rgb(42,120,52)" d="M 804.786 788.418 C 811.993 787.561 818.725 787.499 825.847 789.066 C 846.183 793.54 859.801 806.254 870.796 823.256 C 851.195 816.5 830.307 811.458 809.732 809.14 C 818.778 813.868 827.951 817.617 837.447 821.305 C 846.959 825.446 856.657 829.186 866.289 833.037 C 850.986 839.612 835.301 844.284 818.72 839.021 C 798.644 832.649 786.625 816.259 777.396 798.342 C 785.738 793.287 795.289 790.363 804.786 788.418 z"/>
<path transform="translate(0,0)" fill="rgb(179,29,31)" d="M 1562.97 692.372 L 1564.12 693.521 C 1564.16 710.288 1562.68 726.798 1553.7 741.396 C 1542.19 760.116 1523.95 769.344 1503.24 774.289 C 1508.74 766.297 1534.63 734.787 1534.05 726.625 C 1522.23 740.299 1510.82 754.128 1499.19 767.949 L 1497.83 767.875 C 1497.41 766.75 1497.32 766.634 1497.13 765.254 C 1495.47 752.609 1503.87 731.848 1511.22 721.692 C 1523.61 704.572 1542.55 695.757 1562.97 692.372 z"/>
<path transform="translate(0,0)" fill="url(#Gradient3)" d="M 1084.99 1376.19 C 1099.69 1376 1119.29 1373.66 1132.41 1381.15 C 1137.89 1384.28 1142.02 1389.12 1143.64 1395.28 C 1145.4 1401.92 1144.26 1409.33 1140.75 1415.22 C 1135.94 1423.31 1129.62 1426.31 1120.99 1428.75 C 1112.51 1429.31 1103.94 1428.95 1095.44 1428.82 C 1095.77 1435.16 1096.89 1443.48 1093.22 1449.03 C 1091.84 1451.13 1091.54 1451.03 1089.2 1451.43 C 1088.88 1451.15 1088.52 1450.9 1088.23 1450.58 C 1081.86 1443.87 1084.96 1387.79 1084.99 1376.19 z M 1095.99 1384.72 C 1095.96 1396.64 1095.81 1408.58 1095.97 1420.5 C 1107.06 1420.69 1119.22 1422.34 1128.61 1415.32 C 1132.01 1410.6 1135.6 1404.2 1134.4 1398.13 C 1133.53 1393.7 1129.79 1390.54 1125.98 1388.54 C 1116.84 1383.72 1105.98 1384.55 1095.99 1384.72 z"/>
<path transform="translate(0,0)" fill="rgb(168,203,68)" d="M 1148.76 360.88 L 1151.03 360.978 C 1154.67 362.593 1156.76 366.536 1158.27 370.055 C 1164.88 385.481 1164.03 404.928 1157.89 420.328 C 1152.31 434.309 1143.25 444.27 1129.22 450.183 C 1133.73 434.749 1141.07 408.436 1142.37 392.81 L 1141.04 393.793 C 1137 401.465 1133.41 409.135 1130.53 417.326 C 1127.74 425.284 1124.94 443.235 1120.46 449.189 L 1118.58 449.248 C 1117.43 448.131 1116.56 447.038 1115.84 445.593 C 1108.97 431.658 1107.41 414.201 1112.12 399.428 C 1118.15 380.531 1131.67 369.525 1148.76 360.88 z"/>
<path transform="translate(0,0)" fill="rgb(179,29,31)" d="M 1479.2 992.347 C 1487.67 991.454 1495.43 991.783 1503.64 993.99 C 1524.72 999.656 1542.63 1014.24 1553.45 1032.99 C 1542.36 1038.48 1531.07 1042.7 1518.68 1043.91 C 1502.04 1045.54 1489.33 1041.63 1476.37 1031.13 C 1468.57 1023.69 1462.71 1015.6 1456.87 1006.58 C 1475.09 1017.48 1494.8 1021.78 1515.28 1026.18 C 1496.23 1016.34 1475.36 1010.36 1456.94 999.298 C 1464.26 995.93 1471.26 993.692 1479.2 992.347 z"/>
<path transform="translate(0,0)" fill="rgb(19,82,39)" d="M 644.373 1376.37 C 651.274 1375.3 658.002 1375.19 664.973 1375.14 C 663.357 1381.47 661.176 1387.26 658.628 1393.28 C 650.743 1412.95 642.993 1432.53 636.081 1452.57 C 627.133 1452.94 618.189 1452.76 609.307 1451.6 C 604.078 1438.52 599.992 1424.9 595.082 1411.68 C 590.68 1399.83 585.456 1388.26 580.378 1376.69 L 581.48 1375.56 C 588.426 1375.25 595.312 1375.21 602.263 1375.33 C 611.628 1392.22 617.963 1411.88 624.712 1429.96 C 628.732 1411.41 637.039 1393.79 644.373 1376.37 z"/>
<path transform="translate(0,0)" fill="rgb(179,29,31)" d="M 1213.23 953.333 C 1220.14 952.938 1226.82 953.528 1233.07 956.744 C 1240.86 960.751 1246.33 967.786 1248.77 976.157 C 1251.4 985.198 1250.46 995.451 1245.59 1003.59 C 1240.44 1012.19 1232.72 1016.34 1223.26 1018.72 A 36.5377 36.5377 0 0 1 1205.02 1015.22 A 32.2781 32.2781 0 0 1 1188.04 995.547 C 1185.43 986.91 1186.37 976.999 1190.8 969.115 C 1195.85 960.138 1203.63 955.994 1213.23 953.333 z"/>
<path transform="translate(0,0)" fill="rgb(168,203,68)" d="M 1039.81 542.873 C 1042.68 542.841 1045.55 542.861 1048.39 543.296 C 1063.29 545.57 1076.25 552.729 1085.27 564.993 C 1098.46 582.924 1097.73 601.737 1094.4 622.621 C 1083.04 605.16 1072.05 587.251 1059.08 570.931 C 1057.97 574.044 1082.64 621.08 1085.44 629.322 L 1083.76 628.567 C 1064.65 619.853 1044.54 608.992 1037.24 587.816 C 1032.56 574.248 1033.78 555.864 1039.81 542.873 z"/>
<path transform="translate(0,0)" fill="rgb(19,82,39)" d="M 597.134 538.661 C 597.712 538.773 598.291 538.878 598.867 538.998 C 615.952 542.555 631.02 553.687 640.32 568.332 C 650.695 584.671 651.234 605.109 647.246 623.558 C 634.913 605.015 629.81 588.498 614.589 569.342 L 613.839 570.718 C 623.431 589.254 631.34 609.063 639.851 628.135 C 635.346 627.345 630.841 626.36 626.553 624.739 C 612.295 619.347 600.396 609.031 594.364 594.874 C 586.477 576.365 589.817 556.706 597.134 538.661 z"/>
<path transform="translate(0,0)" fill="rgb(19,82,39)" d="M 911.754 1376.11 L 971.783 1375.92 L 971.79 1392.79 C 958.597 1391.69 945.261 1392.08 932.032 1392.09 L 932.52 1405.45 C 944.323 1405.02 956.188 1405.24 968 1405.23 C 967.993 1410.48 968.204 1415.74 968.327 1420.99 L 937.573 1421.47 L 934.158 1422.06 C 931.719 1425.29 932.787 1431.9 932.922 1435.88 A 1222.15 1222.15 0 0 1 973.173 1436.25 L 973.101 1451.86 L 911.984 1451.77 A 4302.5 4302.5 0 0 0 911.754 1376.11 z"/>
<path transform="translate(0,0)" fill="rgb(19,82,39)" d="M 514.876 1376.31 A 1440.69 1440.69 0 0 1 575.038 1376.13 A 610.722 610.722 0 0 1 574.632 1391.92 L 534.193 1391.95 C 534.831 1396.14 534.991 1400.44 535.307 1404.67 A 1355.78 1355.78 0 0 1 571.037 1405.08 L 570.975 1420.06 L 538.753 1420.74 C 537.565 1420.85 536.633 1421.16 535.503 1421.52 C 534.123 1425.79 535.539 1430.71 536.23 1435.06 L 576.33 1435.09 L 575.947 1451.96 L 515.028 1452.05 C 514.447 1426.85 514.904 1401.53 514.876 1376.31 z"/>
<path transform="translate(0,0)" fill="rgb(19,82,39)" d="M 858.042 865.321 C 875.049 864.083 891.886 869.473 905.693 879.448 C 894.983 883.451 883.261 885.434 872.161 888.177 C 860.661 891.019 849.432 894.589 838.157 898.198 A 114.589 114.589 0 0 0 859.401 897.636 C 869.902 896.408 896.158 889.298 904.794 891.621 L 904.028 895.121 C 894.134 907.768 881.049 917.866 864.611 919.747 C 845.019 921.988 822.227 915.102 806.683 903.167 A 217.626 217.626 0 0 1 810.007 897.795 C 821.267 880.469 838.023 869.596 858.042 865.321 z"/>
<path transform="translate(0,0)" fill="rgb(179,29,31)" d="M 1469.87 792.409 C 1479.28 792.129 1488.76 792.801 1498.17 793.206 C 1492.16 814.247 1482.95 834.8 1464.25 847.465 C 1446.25 859.656 1427.58 857.947 1407.41 854.052 A 818.992 818.992 0 0 0 1441.92 830.833 A 2401.3 2401.3 0 0 0 1472.44 810.157 C 1453.57 816.877 1438.1 827.972 1420.4 836.839 C 1417.19 838.449 1414.5 839.721 1411 838.573 C 1410.93 838.271 1410.82 837.976 1410.8 837.667 C 1410.43 832.318 1418.56 820.803 1422.05 816.478 C 1434.22 801.371 1450.96 794.424 1469.87 792.409 z"/>
<path transform="translate(0,0)" fill="rgb(93,157,73)" d="M 488.484 688.206 C 510.521 691.909 530.964 701.042 544.414 719.52 C 556.419 736.011 556.85 753.503 553.685 772.795 C 543.772 752.928 531.961 736.328 516.209 720.67 L 515.708 720.431 L 515.081 721.107 C 518.766 729.474 524.57 736.863 529.125 744.788 C 534.94 754.91 540.055 765.608 545.377 776.002 C 527.292 772.777 512.259 764.616 501.357 749.55 C 488.318 731.532 484.999 709.946 488.484 688.206 z"/>
<path transform="translate(0,0)" fill="rgb(231,108,61)" d="M 827.102 953.145 C 834.256 952.739 840.82 952.853 847.42 955.987 A 30.0812 30.0812 0 0 1 863.252 974.561 A 35.6738 35.6738 0 0 1 860.412 1001.93 C 855.255 1011.44 847.147 1017.09 836.941 1020.08 C 829.041 1020.39 821.834 1019.45 814.807 1015.57 C 807.121 1011.32 801.326 1004.35 799.057 995.827 A 33.9699 33.9699 0 0 1 803.281 969.04 C 808.895 960.142 817.15 955.618 827.102 953.145 z"/>
<path transform="translate(0,0)" fill="rgb(93,157,73)" d="M 683.659 732.545 C 691.406 733.914 699.378 744.449 703.875 750.51 C 713.686 763.731 719.845 779.443 717.095 796.159 C 713.973 815.127 701.254 828.678 686.161 839.394 C 690.592 821.347 693.586 803.286 694.544 784.71 C 694.19 776.453 693.074 768.628 691.626 760.493 C 690.589 782.476 686.487 814.022 677.069 833.669 C 670.339 819.721 664.731 805.906 663.994 790.246 C 663.081 770.862 670.375 746.946 683.659 732.545 z"/>
<path transform="translate(0,0)" fill="rgb(93,157,73)" d="M 1183.86 865.301 C 1185.95 865.021 1188.05 864.999 1190.15 864.978 C 1205.55 864.82 1231.66 875.891 1242.3 886.999 C 1244.39 889.177 1245.3 890.987 1245.15 894.079 C 1240.14 903.363 1226.61 912.337 1216.76 915.996 C 1197.36 923.21 1179.21 918.77 1161.14 910.32 C 1154.84 907.147 1149.43 903.307 1144.16 898.649 C 1164.7 897.046 1185 893.883 1205.51 892.183 C 1196.55 890.829 1147.21 888.748 1145.5 888.093 C 1145.02 887.909 1144.71 887.432 1144.31 887.101 C 1144.61 886.307 1144.67 885.998 1145.27 885.25 C 1153.75 874.619 1170.97 867.891 1183.86 865.301 z"/>
<path transform="translate(0,0)" fill="rgb(93,157,73)" d="M 1231.65 789.407 C 1247.57 787.792 1266.04 792.256 1279.83 800.194 C 1271.69 816.287 1260.98 830.569 1244.34 838.486 C 1223.67 848.326 1200.84 846.757 1179.74 839.343 C 1185.07 836.085 1190.58 833.774 1196.34 831.408 A 858.436 858.436 0 0 0 1243.06 812.14 C 1219.23 814.797 1195.89 822.47 1173.01 829.375 C 1175.67 825.038 1178.73 821.02 1181.88 817.025 C 1195.61 799.578 1209.68 792.044 1231.65 789.407 z"/>
<path transform="translate(0,0)" fill="rgb(179,29,31)" d="M 1528.71 861.375 C 1551.33 858.213 1570.92 865.631 1590.21 876.529 C 1580.58 885.787 1571.08 894.314 1559.22 900.674 C 1536.32 912.954 1514.55 916.444 1489.44 908.824 C 1485.91 907.752 1479.98 906.421 1478.2 903.113 L 1481.16 901.954 C 1502.48 894.925 1523.33 886.392 1544.72 879.371 C 1515.68 882.673 1503.31 887.579 1476.42 894.781 C 1476.92 892.981 1477.42 891.59 1478.53 890.059 C 1491.16 872.671 1507.81 864.109 1528.71 861.375 z"/>
<path transform="translate(0,0)" fill="rgb(179,29,31)" d="M 1569.54 784.413 C 1595.58 784.109 1612.39 795.883 1631.37 812.155 C 1618.07 824.309 1601.87 834.304 1583.88 837.329 C 1564.29 840.623 1546.52 835.356 1530.59 823.965 C 1527.12 820.994 1524.26 818.057 1521.46 814.438 C 1545.82 812.128 1570.61 814.43 1594.79 811.073 C 1570.49 807.401 1547.1 805.714 1522.53 805.507 C 1536.76 791.948 1549.73 785.761 1569.54 784.413 z"/>
<path transform="translate(0,0)" fill="rgb(93,157,73)" d="M 468.555 790.356 C 472.306 790.151 476.07 789.952 479.827 790.064 C 504.372 790.796 520.275 802.17 536.628 819.398 C 510.887 813.208 484.596 812.595 458.276 812.82 C 476.843 817.945 496.535 820.2 515.5 823.678 C 521.347 824.655 527.183 826.135 532.976 827.413 C 517.909 835.61 504.481 843.078 486.874 843.209 C 458.595 843.419 440.097 829.525 420.915 810.446 C 436.445 799.821 449.792 793.026 468.555 790.356 z"/>
<path transform="translate(0,0)" fill="rgb(93,157,73)" d="M 566.524 986.332 C 579.131 985.389 591.302 987.644 603.555 990.349 C 579.887 1001.64 555.552 1013.11 533.104 1026.68 C 559.359 1021.3 582.173 1010.95 606.267 999.632 C 603.587 1004.45 600.706 1009.15 597.869 1013.87 C 591.798 1022.23 584.956 1029.45 576.168 1034.98 C 558.02 1046.41 536.574 1048.98 515.84 1044.29 C 510.456 1043.07 501.03 1041.92 497.972 1037.06 C 498.596 1031.66 501.971 1027.56 505.137 1023.32 C 520.746 1002.42 540.631 990.031 566.524 986.332 z"/>
<path transform="translate(0,0)" fill="rgb(93,157,73)" d="M 1266.01 715.326 C 1285.98 713.158 1302.63 719.299 1320.29 728.008 C 1319.9 729.022 1319.48 730.027 1319.01 731.004 A 73.55 73.55 0 0 1 1277.51 768.255 C 1257.22 775.371 1237.08 771.637 1218.21 762.584 L 1227.26 759.759 C 1245.23 753.057 1266.05 747.184 1282.59 737.677 C 1259.84 743.242 1236.66 746.822 1213.9 752.549 A 91.6446 91.6446 0 0 1 1220.96 740.359 C 1231.89 724.494 1247.98 718.71 1266.01 715.326 z"/>
<path transform="translate(0,0)" fill="rgb(231,108,61)" d="M 1453.99 535.873 C 1457.51 538.347 1459.49 543.624 1460.8 547.594 C 1466.75 565.697 1464.93 587.501 1456.58 604.556 C 1447.23 623.665 1431.51 635.573 1411.69 642.476 C 1421.71 622.479 1431.83 600.426 1439 579.228 L 1439.68 576.372 L 1438.73 576.383 C 1423.77 592.056 1415.12 613.598 1404.95 632.35 L 1403.79 631.844 C 1397.39 619.277 1398.02 600.839 1402.31 587.572 C 1410.28 562.951 1431.81 547.02 1453.99 535.873 z"/>
<path transform="translate(0,0)" fill="rgb(93,157,73)" d="M 570.504 794.394 C 583.663 793.895 596.406 795.291 608.707 800.205 C 631.68 809.382 643.46 825.405 652.795 847.558 C 631.535 835.35 608.838 825.683 585.768 817.476 C 592.537 821.947 599.626 825.976 606.595 830.128 A 4667.14 4667.14 0 0 0 648.982 854.352 C 645.784 855.856 642.577 857.294 639.132 858.139 C 621.384 862.491 600.747 858.768 585.188 849.391 C 565.178 837.332 555.598 818.881 550.046 796.87 A 449.215 449.215 0 0 1 570.504 794.394 z"/>
<path transform="translate(0,0)" fill="rgb(93,157,73)" d="M 764.534 715.267 C 774.965 713.956 786.472 714.447 796.466 717.854 C 818.374 725.32 829.035 742.712 838.381 762.511 C 813.84 749.635 790.609 741.84 763.246 737.663 C 772.168 741.884 781.05 745.994 790.247 749.599 C 803.613 755.467 816.234 761.735 828.586 769.593 C 810.941 777.187 791.32 778.357 773.109 771.806 C 757.373 766.145 745.364 754.744 735.562 741.521 C 733.764 739.096 730.796 735.799 729.904 732.946 C 729.301 731.02 729.395 730.614 730.474 728.953 C 736.272 720.029 754.844 717.048 764.534 715.267 z"/>
<path transform="translate(0,0)" fill="rgb(168,203,68)" d="M 1247.62 535.053 C 1249.93 534.882 1251.61 534.648 1253.86 535.347 C 1256.84 536.274 1259.01 540.01 1260.17 542.738 C 1265.56 555.515 1263.11 575.925 1258.11 588.604 C 1248.65 612.569 1228.72 622.379 1206.36 631.914 A 1614.66 1614.66 0 0 1 1238.91 564.457 L 1238.02 563.655 C 1225.01 576.413 1214.05 595.182 1205.8 611.423 C 1203.07 616.804 1200.83 625.564 1196.99 629.919 C 1195.15 628.988 1195.08 628.734 1194.42 626.823 C 1189.3 612.072 1191.2 590.769 1197.26 576.564 C 1206.91 553.91 1225.8 543.748 1247.62 535.053 z"/>
<path transform="translate(0,0)" fill="rgb(168,203,68)" d="M 793.936 537.522 C 814.961 542.162 832.501 552.699 844.224 571.153 A 56.736 56.736 0 0 1 851.626 615.426 C 849.502 624.37 844.467 632.877 842.872 641.829 L 840.136 639.45 C 843.268 633.156 839.464 620.656 837.297 614.223 C 831.6 597.315 823.171 581.814 813.031 567.195 C 821.785 590.472 829.708 615.532 832.277 640.311 C 814.489 631.987 798.207 618.311 791.251 599.398 C 784.282 580.449 785.6 555.828 793.936 537.522 z"/>
<path transform="translate(0,0)" fill="rgb(168,203,68)" d="M 915.121 358.455 C 935.154 364.235 956.466 377.109 966.894 395.636 C 977.751 414.924 976.207 434.481 970.5 455.102 C 959.066 437.317 950.488 417.921 938.269 400.473 C 936.544 398.011 933.962 393.371 931.016 392.855 C 934.87 400.182 937.676 408.378 941.106 415.943 C 947.88 430.883 955.238 445.651 961.069 460.989 C 951.267 457.535 942.04 453.769 933.563 447.634 C 918.988 437.084 908.866 421.45 906.046 403.585 C 903.676 388.568 905.985 370.919 915.121 358.455 z"/>
<path transform="translate(0,0)" fill="rgb(93,157,73)" d="M 514.61 865.436 L 515.871 865.408 C 539.279 865.061 558.45 873.082 575.208 889.27 C 578.672 892.615 583.618 896.663 583.694 901.708 C 580.019 902.929 516.989 893.242 506.323 892.5 A 666.776 666.776 0 0 0 556.068 907.271 C 562.252 908.655 568.644 909.544 574.888 910.661 L 573.929 911.34 C 559.992 921.046 540.82 927.069 523.842 923.677 C 500.584 919.029 477.012 900.197 463.884 880.953 C 479.663 870.673 496.06 867.199 514.61 865.436 z"/>
<path transform="translate(0,0)" fill="url(#Gradient4)" d="M 1263.69 1376.41 C 1273.66 1376.12 1283.45 1377.7 1291.72 1383.68 A 35.0216 35.0216 0 0 1 1305.91 1407.45 A 37.8867 37.8867 0 0 1 1297.89 1436.73 C 1290.22 1446.14 1280.88 1449.23 1269.34 1450.58 C 1260 1450.83 1250.12 1448.02 1242.68 1442.29 C 1234.55 1436.02 1229.71 1426.85 1228.4 1416.73 C 1227.16 1407.16 1229.19 1397.32 1235.35 1389.73 C 1242.69 1380.69 1252.59 1377.61 1263.69 1376.41 z M 1262.77 1385.14 C 1253.86 1387.54 1246.57 1390.48 1241.89 1399.09 C 1238.21 1405.85 1237.9 1414.28 1240.25 1421.53 A 30.0645 30.0645 0 0 0 1256.34 1439.83 C 1261.54 1442.2 1266.69 1442.23 1272.31 1441.95 C 1281.13 1439.35 1288 1435.62 1292.69 1427.37 C 1296.68 1420.35 1297.37 1411.59 1294.83 1403.96 A 27.5505 27.5505 0 0 0 1279.85 1387.33 C 1274.37 1384.83 1268.68 1384.76 1262.77 1385.14 z"/>
<path transform="translate(0,0)" fill="rgb(19,82,39)" d="M 1005.85 497.137 L 1010.03 496.845 C 1012.73 498.211 1013.42 499.466 1014.65 502.288 C 1020.79 516.416 1018.55 540.287 1013.36 554.659 C 1004.46 579.278 985.981 593.944 963.09 604.821 C 966.889 597.359 993.675 531.735 993.466 528.311 L 991.973 529.585 C 985.649 539.572 978.78 548.949 973.15 559.411 C 965.116 574.338 959.73 590.143 953.459 605.823 C 945.605 583.622 943.054 559.414 953.594 537.642 C 964.63 514.844 982.829 505.1 1005.85 497.137 z"/>
<path transform="translate(0,0)" fill="rgb(19,82,39)" d="M 1000.23 644.31 C 1000.57 644.319 1000.91 644.303 1001.25 644.337 C 1002.83 644.495 1003.87 644.309 1004.72 645.779 C 1006.46 648.759 1006.67 653.028 1007.28 656.415 C 1009.78 670.554 1010.61 683.789 1006.17 697.689 C 998.541 721.601 979.009 741.907 956.937 753.204 C 959.887 744.03 985.418 679.181 984.89 674.996 L 983.142 677.539 C 968.667 701.203 955.849 724.921 946.896 751.244 C 942.888 744.442 939.786 737.835 938.184 730.055 C 934.339 711.373 939.222 691.067 949.882 675.423 C 961.668 658.125 979.895 648.011 1000.23 644.31 z"/>
<path transform="translate(0,0)" fill="rgb(19,82,39)" d="M 1012.82 354.39 C 1014.18 354.716 1014.47 354.745 1015.96 355.339 C 1035.81 363.249 1052.04 380.717 1059.61 400.508 C 1068.33 423.288 1064.03 446.399 1054.27 467.927 C 1049.15 451.712 1035.12 404.357 1023.81 392.619 C 1030.05 419.63 1037.93 446.058 1045.87 472.608 C 1042.65 470.939 1039.48 469.22 1036.42 467.285 C 1017.72 455.483 1003.38 439.115 998.568 417.089 C 993.784 395.176 1001.09 372.815 1012.82 354.39 z"/>
<path transform="translate(0,0)" fill="rgb(19,82,39)" d="M 704.521 1375.33 C 714.37 1374.54 724.54 1376.11 733.028 1381.42 A 37.3237 37.3237 0 0 1 749.919 1406.27 A 36.9981 36.9981 0 0 1 744.317 1434.17 C 736.904 1445.06 725.811 1450.32 713.248 1452.75 C 702.313 1453.72 691.197 1452.54 681.984 1446.07 C 673.357 1440.01 668.016 1430.66 666.568 1420.28 A 39.6664 39.6664 0 0 1 674.228 1390.75 C 681.935 1380.71 692.507 1377.12 704.521 1375.33 z M 702.021 1393.09 C 695.323 1396.91 690.147 1401.04 687.996 1408.77 A 19.7609 19.7609 0 0 0 689.872 1424.06 C 692.821 1429.24 698.281 1433.27 704.049 1434.72 C 707.25 1435.52 710.902 1435.49 714.196 1435.44 C 720.331 1432.81 724.76 1429.07 727.374 1422.78 C 729.696 1417.2 729.433 1410.55 726.989 1405.06 C 724.798 1400.13 720.518 1395.79 715.414 1393.9 C 711.242 1392.35 706.371 1392.75 702.021 1393.09 z"/>
<path transform="translate(0,0)" fill="rgb(179,29,31)" d="M 1584.82 934.377 C 1590.48 934.097 1596.2 934.012 1601.85 934.509 C 1630.71 937.049 1652.56 956.534 1670.56 977.61 C 1656.77 987.864 1640.35 995.664 1623.28 998.257 C 1596.92 1002.26 1574.12 994.806 1552.96 979.274 C 1547.49 974.243 1543.05 968.757 1538.56 962.852 A 434.341 434.341 0 0 1 1583.32 966.731 C 1598.39 968.706 1613.72 971.54 1628.95 971.141 C 1600.62 962.594 1571.14 953.663 1541.65 950.386 C 1555.43 942.385 1568.92 936.308 1584.82 934.377 z"/>
<path transform="translate(0,0)" fill="rgb(168,203,68)" d="M 714.631 621.256 C 728.023 620.255 740.621 620.771 753.212 625.884 C 774.537 634.545 785.786 652.558 794.278 673 C 768.738 654.963 734.69 649.375 703.969 649.948 C 720.8 653.184 738.598 658.21 754.311 664.999 C 765.938 669.795 779.782 674.341 790.063 681.505 C 770.17 689.333 747.644 692.849 726.604 687.725 C 701.7 681.66 678.489 663.025 665.213 641.37 C 680.299 631.007 696.588 624.194 714.631 621.256 z"/>
<path transform="translate(0,0)" fill="rgb(93,157,73)" d="M 1312.96 620.392 C 1336.57 618.295 1358.95 622.84 1379.78 634.223 A 68.6844 68.6844 0 0 1 1376.49 641.331 C 1365.32 661.878 1343.84 679.279 1321.5 686.038 C 1301.1 692.206 1276.34 690.076 1257.55 679.973 L 1271.28 674.85 C 1282.68 670.697 1293.81 665.846 1305.06 661.294 C 1314.12 657.63 1323.65 654.487 1332.24 649.816 C 1304.42 655.109 1277.23 662.532 1249.9 669.849 A 125.523 125.523 0 0 1 1259.38 654.272 C 1272.9 635.207 1289.93 624.177 1312.96 620.392 z"/>
<path transform="translate(0,0)" fill="rgb(93,157,73)" d="M 1045.82 642.656 C 1054.98 644.498 1063.9 646.571 1072.4 650.536 A 77.6427 77.6427 0 0 1 1112.61 695.039 C 1120.46 717.506 1115.38 736.877 1105.41 757.624 C 1102.7 749.587 1098.36 741.798 1094.82 734.079 C 1087.98 719.158 1081.3 704.182 1073.94 689.5 C 1072 685.669 1070.02 681.975 1067.7 678.355 C 1074.85 704.845 1083.52 733.453 1095.98 757.944 C 1075.73 752.108 1059.75 741.232 1049.14 722.66 C 1034.75 697.454 1038.61 669.331 1045.82 642.656 z"/>
<path transform="translate(0,0)" fill="rgb(93,157,73)" d="M 452.202 930.348 C 478.408 929.414 498.926 936.443 523.496 944.524 C 488.173 947.043 450.631 956.526 418.557 971.944 C 429.828 968.936 441.468 967.974 452.974 966.219 C 474.822 962.885 496.21 959.243 517.568 953.44 C 507.879 970.517 494.784 983.352 476.488 991.011 C 450.903 1001.72 420.567 999.015 395.397 988.514 C 390.784 986.589 381.282 983.342 379.286 978.547 C 379.767 975.665 381.079 973.907 382.795 971.631 C 400.009 948.813 423.741 934.029 452.202 930.348 z"/>
<path transform="translate(0,0)" fill="rgb(179,29,31)" d="M 1340.45 1023.17 C 1365.06 1014.11 1390.06 1014.06 1414.19 1025.03 C 1442.15 1037.74 1458.1 1062 1472.2 1088 C 1442.6 1099.45 1412.49 1104.56 1382.43 1091.29 A 85.1294 85.1294 0 0 1 1337.38 1043.94 C 1336.05 1040.42 1334.88 1036.87 1334.03 1033.21 C 1341.67 1036.28 1349.5 1039.14 1356.98 1042.58 C 1360.79 1042.94 1368.14 1044.66 1371.36 1042.86 L 1370.05 1039.62 C 1359.92 1034.68 1350.37 1028.53 1340.45 1023.17 z"/>
<path transform="translate(0,0)" fill="rgb(245,246,245)" d="M 1370.05 1039.62 C 1381.54 1044.24 1392.47 1050.8 1403.44 1056.57 C 1412.18 1061.16 1421.23 1065.21 1429.86 1069.99 C 1408.52 1064 1375.24 1054.54 1356.98 1042.58 C 1360.79 1042.94 1368.14 1044.66 1371.36 1042.86 L 1370.05 1039.62 z"/>
<path transform="translate(0,0)" fill="rgb(231,108,61)" d="M 665.766 1018.34 C 683.958 1017.47 700.176 1020.9 717.86 1024.66 C 715.916 1039.01 710.679 1052.64 701.984 1064.29 C 686.012 1085.68 661.679 1096.17 635.932 1100.05 C 616.665 1100.89 600.03 1098.25 581.714 1092.32 C 584.924 1078.77 590.5 1066.71 598.973 1055.62 C 615.735 1033.66 638.721 1021.98 665.766 1018.34 z M 707.713 1026.14 C 686.109 1030.69 647.996 1055.4 629.13 1068.63 L 629.123 1069.98 L 628.733 1068.9 L 628.065 1069.74 C 630.758 1070.14 633.272 1068.46 635.763 1067.41 C 659.792 1057.66 695.821 1045.96 714.277 1027.64 L 714.233 1026.37 C 712.047 1026.24 709.906 1026.12 707.713 1026.14 z"/>
<path transform="translate(0,0)" fill="rgb(179,29,31)" d="M 1483.56 638.182 L 1485.07 638.55 C 1485.8 639.741 1486.24 640.805 1486.6 642.159 C 1494.72 672.968 1491.02 709.217 1474.93 736.861 C 1462.89 757.552 1442.43 770.763 1419.83 776.907 A 1394.33 1394.33 0 0 0 1447.5 708.839 C 1451.01 699.758 1455.14 690.706 1457.95 681.388 L 1457.05 680.838 C 1440.05 710.209 1423.21 739.349 1409.33 770.384 C 1406.4 764.061 1404.43 757.557 1403.07 750.737 C 1398.1 725.778 1402.53 702.911 1416.71 681.781 C 1432.81 657.767 1455.51 643.856 1483.56 638.182 z"/>
<path transform="translate(0,0)" fill="rgb(93,157,73)" d="M 563.077 637.749 C 567.845 638.07 572.417 639.082 577.042 640.227 C 603.856 646.867 625.383 659.203 639.738 683.439 C 656.575 711.866 654.856 746.361 646.853 777.346 C 641.68 766.109 638.172 754.124 633.398 742.71 C 624.626 721.736 612.405 702.739 598.269 685.029 C 595.098 681.022 591.71 677.266 588.268 673.495 C 607.045 705.176 621.278 741.674 632.084 776.754 C 604.447 765.919 580.6 751.597 566.559 724.236 C 553.038 697.888 554.197 665.311 563.077 637.749 z"/>
<path transform="translate(0,0)" fill="rgb(93,157,73)" d="M 665.508 462.192 C 694.656 465.63 722.871 473.914 744.055 495.397 C 767.549 519.222 771.251 550.557 771.011 582.47 C 751.263 551.114 733.516 529.745 705.674 504.928 L 704.47 504.168 C 704.631 507.086 712.565 515.137 714.7 518.334 C 729.479 540.47 743.328 563.03 757.321 585.675 C 748.07 585.091 739.011 583.458 730.03 581.191 C 705.207 574.928 684.052 561.375 670.865 538.988 C 656.297 514.258 658.692 488.96 665.508 462.192 z"/>
<path transform="translate(0,0)" fill="rgb(93,157,73)" d="M 1261.68 391.33 C 1263.65 391.121 1263.09 390.936 1264.67 391.493 C 1266.28 392.063 1266.98 394.29 1267.56 395.823 C 1274.97 415.528 1276.64 447.654 1267.9 467.032 C 1252.4 501.434 1223.98 519.262 1189.69 532.355 C 1198.39 506.949 1211.18 482.027 1223.48 458.194 C 1226.85 451.652 1239.77 432.758 1239.66 426.846 C 1217.49 455.142 1184.56 496.096 1176.87 531.63 A 255.548 255.548 0 0 1 1174.65 520.34 C 1169.19 489.636 1171.91 457.682 1190.36 431.633 C 1207.26 407.772 1233.6 396.1 1261.68 391.33 z"/>
<path transform="translate(0,0)" fill="rgb(168,203,68)" d="M 1372.8 464.492 C 1379.58 464.217 1386.24 464.503 1393.01 464.869 C 1393.88 490.281 1391.72 514.384 1376.39 535.601 C 1351.43 570.148 1324.21 576.839 1284.51 583.015 C 1303.68 556.938 1326.63 531.556 1349.69 508.881 C 1352.29 506.378 1354.45 503.591 1356.7 500.77 C 1323.5 522.393 1294.84 546.903 1271.4 579.06 A 245.463 245.463 0 0 1 1270.46 569.54 C 1268.36 543.148 1277.13 518.904 1294.46 498.85 C 1313.65 476.659 1344.32 466.569 1372.8 464.492 z"/>
<path transform="translate(0,0)" fill="rgb(93,157,73)" d="M 786.79 388.597 C 799.413 392.034 812.306 395.601 823.987 401.607 C 845.19 412.509 863.2 435.631 870.385 458.202 C 877.843 481.632 876.898 505.318 865.548 527.185 C 861.397 516.879 858.424 506.058 854.462 495.66 C 846.973 476.003 835.376 458.967 822.574 442.425 C 820.135 439.381 817.579 436.502 814.927 433.641 C 830.521 461.518 843.853 496.053 850.232 527.333 C 834.247 522.298 819.511 516.248 806.303 505.707 C 787.744 490.896 775.977 471.306 773.347 447.547 C 771.197 428.129 774.377 404.325 786.79 388.597 z"/>
<path transform="translate(0,0)" fill="rgb(231,108,61)" d="M 676.495 896.188 C 676.707 886.768 655.318 844.833 654.696 826.837 L 655.643 826.446 C 659.248 830.04 660.171 838.068 662.194 842.844 C 665.701 851.125 677.68 879.09 684.157 883.445 C 684.579 883.729 685.028 883.971 685.463 884.235 C 723.438 948.938 776.619 1017.53 852.539 1036.96 C 864.467 1040.02 880.001 1043.67 891.245 1036.9 C 898.076 1032.79 902.371 1025.32 903.909 1017.62 C 909.821 988.039 875.682 951.936 880.409 940.007 C 882.649 939.228 883.914 939.123 886.148 940.157 C 890.66 942.247 894.78 948.325 897.704 952.294 A 237.855 237.855 0 0 1 935.396 1030.41 C 952.618 1091.41 942.687 1155.91 911.903 1210.81 A 215.681 215.681 0 0 1 899.623 1230.15 L 850.352 1234.3 C 842.485 1234.97 833.872 1236.49 826.035 1236.03 C 841.353 1216.73 855.156 1190.37 855.098 1165.19 C 854.98 1113.37 807.269 1087.46 773.787 1056.43 C 757.486 1041.32 743.156 1024.42 727.315 1008.89 C 682.901 999.074 637.886 986.471 595.486 970.006 C 586.448 966.497 576.689 963.217 568.174 958.599 C 562.119 949.912 537.294 946.301 533.263 938.574 C 542.704 940.415 566.452 952.844 573.55 951.64 C 574.056 951.554 574.553 951.417 575.055 951.305 C 625.654 966.897 676.944 978.445 729.583 984.209 C 709.441 961.524 686.708 924.883 676.495 896.188 z"/>
<path transform="translate(0,0)" fill="rgb(179,29,31)" d="M 1400.79 811.156 C 1403.01 867.942 1338.98 963.668 1304.89 1008.47 C 1359.96 969.724 1423.6 968.217 1484.49 944.417 A 474.806 474.806 0 0 0 1526.77 925.406 C 1540.97 918.091 1555.47 908.497 1570.9 904.27 C 1584.32 900.597 1598.32 902.564 1611.81 904.804 C 1599.54 905.595 1586.19 905.141 1574.34 908.725 C 1555.47 914.429 1536.34 930.63 1519.17 940.695 C 1503.72 949.744 1487.03 957.074 1470.52 963.963 C 1426.78 982.215 1376.72 986.394 1335.29 1009.92 C 1324.77 1015.89 1317.17 1024.86 1307.86 1032.35 C 1297.85 1040.4 1286.92 1047.27 1276.78 1055.17 C 1261.87 1066.78 1248.1 1080.51 1235.61 1094.69 C 1215.67 1117.31 1200.81 1143.57 1203.03 1174.59 C 1204.66 1197.3 1212.82 1218.17 1218.63 1239.91 C 1206.16 1239.55 1169.88 1236.47 1159.46 1232.51 C 1122.3 1188.11 1106.12 1111.85 1111.06 1055.25 C 1114.2 1019.19 1127.26 986.461 1148.23 957.097 C 1153.13 950.235 1158.41 942.755 1164.89 937.262 C 1167.29 935.221 1169.43 933.69 1172.61 933.214 C 1175.13 933.707 1177.2 934.016 1178.78 936.325 C 1180.56 938.924 1180.22 942.239 1179.41 945.107 C 1176.91 953.997 1170.89 962.291 1167.16 970.763 C 1160.96 984.848 1150.74 1022.32 1157.93 1036.19 C 1160.03 1040.26 1163.56 1042.98 1167.98 1044.11 C 1186.93 1048.94 1224.9 1029.35 1240.56 1019.27 C 1253.08 1011.22 1264.07 1001.37 1275.16 991.52 C 1331.6 941.356 1370.29 879.658 1400.79 811.156 z"/>
<path transform="translate(0,0)" fill="rgb(23,72,121)" d="M 617.536 1599.88 C 629.553 1590.94 641.257 1581.96 654.143 1574.26 C 696.289 1549.06 747.326 1532.53 795.625 1524.2 C 817.231 1520.47 839.096 1518.15 860.755 1514.71 C 915.922 1505.94 970.563 1496.74 1026.54 1494.84 C 1158.49 1490.36 1327.19 1525.23 1436.35 1602.46 A 697.065 697.065 0 0 0 1274.68 1559.17 C 1232.7 1553.47 1188.64 1552.27 1148.21 1538.73 C 1206.48 1582.53 1272.26 1584.34 1328.99 1635.32 C 1331.38 1644.69 1348.29 1650.9 1349.46 1660.33 C 1341.48 1659.16 1336.73 1649.31 1328.02 1648.52 C 1319.65 1645.7 1303.54 1634.68 1293.64 1630.42 C 1267.23 1619.05 1240.36 1612.79 1212.65 1605.66 C 1229.89 1635.16 1239.13 1667.8 1245.3 1701.11 C 1234.11 1669.45 1201.44 1620.12 1178.56 1594.78 C 1135.93 1583.02 1097.39 1555.25 1074.03 1517.6 C 1083.43 1592.51 1145.5 1615.51 1195.95 1659.04 C 1168.11 1648.16 1140.57 1641.63 1116.34 1622.75 C 1130.71 1647.83 1145.46 1672.13 1158.58 1697.93 C 1140.24 1680.13 1124.85 1658.97 1108.69 1639.23 C 1093.39 1620.54 1077.57 1602.98 1063.5 1583.26 C 1067.68 1595.98 1069.85 1609.3 1071.46 1622.56 C 1075.46 1655.5 1073.14 1676.59 1059.81 1706.69 C 1069.29 1669.34 1059.54 1637.38 1042.04 1604.09 C 1035.72 1592.07 1028.61 1579.9 1025.36 1566.63 C 1005.57 1614.49 975.577 1655.39 991.496 1709.58 C 975.785 1677.31 974.314 1654.69 979.354 1619.35 C 981.113 1607.02 983.092 1594.73 986.948 1582.85 C 976.628 1598.81 963.874 1611.53 952.119 1626.25 C 932.59 1650.69 914.663 1677.73 890.548 1698.07 C 895.427 1690.98 899.114 1682.89 903.315 1675.37 C 912.639 1658.69 921.881 1641.86 931.816 1625.53 C 906.676 1644.33 872.614 1651.52 842.334 1657.77 C 855.3 1651.81 868.061 1644.52 880.414 1637.36 C 916.127 1616.67 952.482 1591.89 968.468 1552.34 C 973.408 1540.12 976.159 1527.09 979.551 1514.38 C 962.063 1547.53 935.645 1571.21 900.631 1584.55 C 893.985 1587.09 887.039 1588.44 880.336 1590.74 C 875.677 1592.33 872.746 1594.77 869.563 1598.45 C 856.921 1613.08 847.394 1631.3 836.879 1647.55 C 826.085 1664.23 813.422 1680.58 804.527 1698.34 C 811.889 1671.76 825.253 1624.08 843.824 1604.78 L 844.847 1603.74 L 843.68 1603.6 L 842.912 1604.29 C 836.299 1604.11 823.737 1608.62 816.72 1610.23 C 754.451 1624.47 728.838 1643.74 681.547 1682.81 C 696.059 1664.59 710.429 1646.05 728.079 1630.71 C 768.398 1595.65 813.068 1587.92 859.727 1567.19 C 876.064 1559.93 890.557 1550.6 905.301 1540.63 C 865.819 1555.43 817.039 1553.1 775.269 1557.17 C 712.154 1563.32 675.249 1575.19 617.536 1599.88 z"/>
<path transform="translate(0,0)" fill="rgb(23,72,121)" d="M 1145.82 563.012 C 1163.37 600.078 1179.98 640.843 1165.53 681.826 C 1163.38 687.906 1160.71 693.413 1157.31 698.885 C 1154.77 683.584 1151.84 668.171 1150.29 652.737 C 1148.21 631.884 1147.77 610.866 1146.37 589.96 C 1139.83 615.801 1139.21 644.476 1142.35 670.922 C 1144.65 690.273 1148.23 707.014 1145.86 726.673 C 1141.66 761.54 1129.62 797.582 1113.06 828.66 C 1108.16 837.857 1100.7 846.611 1096.89 856.254 C 1135.04 811.563 1162.71 778.001 1185.59 722.698 C 1194.81 700.405 1201.87 678.436 1206.02 654.592 C 1206.91 649.446 1206.52 644.303 1211.41 641.634 L 1212.64 641.871 C 1214.95 649.018 1213.69 658.813 1213.14 666.231 A 321.238 321.238 0 0 1 1177.59 789.427 C 1160.48 822.829 1135.71 847.98 1114.2 878.131 C 1061.3 952.292 1046.83 1041.61 1074.52 1128.42 C 1084.96 1161.16 1102.51 1204.34 1125.06 1230.1 C 1136.57 1230.39 1147.99 1231.47 1159.46 1232.51 C 1169.88 1236.47 1206.16 1239.55 1218.63 1239.91 C 1232.34 1240.74 1246.1 1242.96 1259.72 1244.72 A 1318.24 1318.24 0 0 1 1349.23 1258.78 C 1477.3 1282.99 1609.84 1317.56 1718.97 1391.55 C 1687.83 1378.03 1654.29 1369.44 1621.65 1360.37 C 1573.19 1346.92 1524.85 1334.28 1475.59 1324.08 C 1168.27 1260.43 858.161 1256.35 551.687 1326.87 C 477.263 1343.99 402.669 1364.57 331.107 1391.38 C 367.455 1366.57 407.42 1347.38 447.953 1330.5 C 534.727 1294.36 623.954 1271.06 716.084 1253.28 A 1183.02 1183.02 0 0 1 779.718 1243.05 C 794.364 1241.09 812.184 1240.83 826.035 1236.03 C 833.872 1236.49 842.485 1234.97 850.352 1234.3 L 899.623 1230.15 L 932.315 1228.59 C 958.923 1183.94 975.484 1132.58 982.781 1081.22 C 1008.13 902.858 915.738 898.046 862.141 764.804 C 854.775 746.493 847.208 725.077 845.34 705.382 C 847.426 699.309 841.605 658.1 840.679 649.212 C 845.252 654.881 848.417 679.977 851.288 688.873 L 852.634 688.324 C 875.044 760.595 902.257 803.623 955.633 857.137 C 925.483 810.734 904.503 747.945 904.974 692.136 C 905.277 656.141 908.866 627.156 902.38 590.559 C 899.64 608.965 899.348 627.681 897.552 646.198 C 895.824 664.009 892.624 681.571 890.468 699.311 C 875.472 672.801 870.867 650.307 879.171 620.531 C 884.523 601.339 892.839 580.955 903.599 564.134 C 919.076 592.897 934.932 633.425 924.957 666.444 C 922.473 674.664 918.74 682.36 914.273 689.678 C 916.126 728.905 936.299 775.285 954.732 809.763 C 962.436 824.173 971.184 838.003 978.963 852.372 C 995.056 882.098 1012.41 916.334 1022.41 948.676 C 1031.88 907.785 1082.98 840.354 1104.04 798.802 C 1115.22 776.735 1124.64 753.891 1131.07 729.976 C 1134.13 718.592 1135.96 706.742 1139.34 695.491 C 1128.33 687.979 1122.26 679.42 1119.75 666.04 C 1114.48 637.836 1124.08 610.422 1135.34 585.046 C 1138.59 577.703 1141.65 569.879 1145.82 563.012 z"/>
</svg>
