<?xml version="1.0" encoding="utf-8"?>
<svg viewBox="0 0 20 20" fill="none" xmlns="http://www.w3.org/2000/svg">
  <path
    d="M10 3.5a6.5 6.5 0 0 0-5.37 10.17L4 16.5l2.93-.62A6.5 6.5 0 1 0 10 3.5Z"
    stroke="#25D366"
    stroke-width="1.5"
    stroke-linecap="round"
    stroke-linejoin="round"
  />
  <path
    d="m7.5 8.2.9 2.1c.08.2.02.42-.13.56l-.5.45a.48.48 0 0 0-.1.56c.33.62.84 1.13 1.46 1.46.2.1.44.06.6-.1l.44-.5c.14-.16.37-.22.57-.14l2.05.9"
    stroke="#25D366"
    stroke-width="1.5"
    stroke-linecap="round"
    stroke-linejoin="round"
  />
</svg>
