<?xml version="1.0" encoding="utf-8"?>
<svg viewBox="0 0 18 18" fill="none" xmlns="http://www.w3.org/2000/svg">
  <path
    d="M5.289 0.056C6.249 0.012 6.556 0 9 0c2.444 0 2.78 0.012 3.741 0.056 0.958 0.044 1.612 0.211 2.184 0.448a4.408 4.408 0 0 1 1.594 1.038 4.408 4.408 0 0 1 1.038 1.594c0.237 0.572 0.404 1.226 0.448 2.184C18.049 6.28 18.061 6.587 18.061 9.03c0 2.444-0.012 2.751-0.056 3.711-0.044 0.958-0.211 1.612-0.448 2.184a4.408 4.408 0 0 1-1.038 1.594 4.408 4.408 0 0 1-1.594 1.038c-0.572 0.237-1.226 0.404-2.184 0.448-0.96 0.044-1.267 0.056-3.711 0.056-2.444 0-2.751-0.012-3.711-0.056-0.958-0.044-1.612-0.211-2.184-0.448a4.408 4.408 0 0 1-1.594-1.038 4.408 4.408 0 0 1-1.038-1.594c-0.237-0.572-0.404-1.226-0.448-2.184C0.012 11.781 0 11.474 0 9.03c0-2.444 0.012-2.751 0.056-3.711 0.044-0.958 0.211-1.612 0.448-2.184A4.408 4.408 0 0 1 1.542 1.54 4.408 4.408 0 0 1 3.136 0.503c0.572-0.237 1.226-0.404 2.184-0.448Zm0.074 1.622c-0.877 0.04-1.354 0.187-1.671 0.31-0.42 0.163-0.72 0.358-1.035 0.673a2.786 2.786 0 0 0-0.673 1.035c-0.123 0.317-0.27 0.794-0.31 1.671-0.043 0.95-0.052 1.234-0.052 3.637s0.01 2.688 0.052 3.637c0.04 0.877 0.187 1.354 0.31 1.671 0.163 0.42 0.358 0.72 0.673 1.035 0.315 0.315 0.615 0.51 1.035 0.673 0.317 0.123 0.794 0.27 1.671 0.31 0.95 0.043 1.234 0.052 3.637 0.052s2.688-0.01 3.637-0.052c0.877-0.04 1.354-0.187 1.671-0.31a2.786 2.786 0 0 0 1.035-0.673 2.786 2.786 0 0 0 0.673-1.035c0.123-0.317 0.27-0.794 0.31-1.671 0.043-0.95 0.052-1.234 0.052-3.637s-0.01-2.688-0.052-3.637c-0.04-0.877-0.187-1.354-0.31-1.671a2.786 2.786 0 0 0-0.673-1.035 2.786 2.786 0 0 0-1.035-0.673c-0.317-0.123-0.794-0.27-1.671-0.31C11.688 1.632 11.403 1.622 9 1.622s-2.688 0.01-3.637 0.052Z"
    fill="#333333"
  />
  <path
    d="M9 4.378a4.622 4.622 0 1 0 0 9.244 4.622 4.622 0 0 0 0-9.244Zm0 7.622a3 3 0 1 1 0-6 3 3 0 0 1 0 6Z"
    fill="#333333"
  />
  <circle cx="14.884" cy="4.196" r="1.08" fill="#333333" />
</svg>
