<?xml version="1.0" encoding="utf-8"?>
<svg viewBox="0 0 16 16" fill="none" xmlns="http://www.w3.org/2000/svg">
  <path
    d="M1.175 0C0.526 0 0 0.513 0 1.146v13.708C0 15.487 0.526 16 1.175 16h13.65c0.649 0 1.175-0.513 1.175-1.146V1.146C16 0.513 15.474 0 14.825 0H1.175Zm3.768 6.169v7.225H2.542V6.169h2.401Zm-1.2-3.483c0.822 0 1.327 0.539 1.342 1.248 0 0.694-0.521 1.248-1.358 1.248h-0.016c-0.806 0-1.327-0.554-1.327-1.248C2.384 3.226 2.921 2.686 3.743 2.686Zm4.909 3.483v1.042c0.319-0.501 0.89-1.213 2.164-1.213 1.581 0 2.765 1.032 2.765 3.252v4.144H11.18V9.529c0-0.972-0.347-1.634-1.216-1.634-0.664 0-1.059 0.447-1.232 0.878-0.064 0.154-0.08 0.37-0.08 0.586v4.035H6.29c0-7.225 0.031-6.543 0-7.225h2.362Z"
    fill="#333333"
  />
</svg>
