<svg xmlns="http://www.w3.org/2000/svg" width="240" height="246" viewBox="0 0 240 246" fill="none">
  <!-- Simplified Evolve Sprouts mascot placeholder using brand colors -->
  <!-- Body base -->
  <ellipse cx="120" cy="160" rx="85" ry="72" fill="#174879"/>
  <!-- Face/head -->
  <ellipse cx="120" cy="130" rx="68" ry="68" fill="#E76C3D"/>
  <!-- Head crest -->
  <ellipse cx="120" cy="85" rx="42" ry="36" fill="#B31D1F"/>
  <!-- Sprout leaves -->
  <path d="M120 20 C130 40, 155 50, 160 35 C165 20, 140 15, 120 20Z" fill="#5D9D49"/>
  <path d="M120 20 C110 40, 85 50, 80 35 C75 20, 100 15, 120 20Z" fill="#A8CB44"/>
  <path d="M120 8 C125 25, 145 35, 148 22 C151 9, 130 5, 120 8Z" fill="#135227"/>
  <!-- Stem -->
  <rect x="118" y="8" width="4" height="22" rx="2" fill="#2A7834"/>
  <!-- Eyes -->
  <circle cx="100" cy="125" r="8" fill="#FFFFFF"/>
  <circle cx="140" cy="125" r="8" fill="#FFFFFF"/>
  <circle cx="102" cy="124" r="4" fill="#1C3542"/>
  <circle cx="142" cy="124" r="4" fill="#1C3542"/>
  <!-- Beak/smile -->
  <path d="M110 145 Q120 158 130 145" stroke="#B31D1F" stroke-width="3" fill="none" stroke-linecap="round"/>
  <!-- Feet -->
  <ellipse cx="95" cy="225" rx="20" ry="8" fill="#E76C3D"/>
  <ellipse cx="145" cy="225" rx="20" ry="8" fill="#E76C3D"/>
  <!-- Wing accents -->
  <ellipse cx="55" cy="160" rx="25" ry="40" transform="rotate(-15 55 160)" fill="#135227" opacity="0.7"/>
  <ellipse cx="185" cy="160" rx="25" ry="40" transform="rotate(15 185 160)" fill="#135227" opacity="0.7"/>
</svg>
