<?xml version="1.0" encoding="UTF-8"?>
<svg version="1.1" xmlns="http://www.w3.org/2000/svg" width="37" height="36">
<path d="M0 0 C3.26110241 0.31325861 4.17692677 1.10986547 6.49658203 3.37036133 C7.19219238 4.03640381 7.88780273 4.70244629 8.60449219 5.38867188 C9.69189697 6.46822144 9.69189697 6.46822144 10.80126953 7.56958008 C11.54812012 8.29636963 12.2949707 9.02315918 13.06445312 9.77197266 C14.56882059 11.23893335 16.06839869 12.71082264 17.56298828 14.18774414 C19.43743582 16.02321288 21.34033052 17.8160773 23.27001953 19.59301758 C24.28081894 20.54313139 25.29126598 21.49362029 26.30126953 22.44458008 C27.18041016 23.26313477 28.05955078 24.08168945 28.96533203 24.92504883 C30.67626953 27.25708008 30.67626953 27.25708008 30.56689453 29.94848633 C29.4621839 32.81201256 28.29722158 33.71534358 25.67626953 35.25708008 C19.37745813 37.35668388 11.35381297 37.46768117 5.23876953 34.69458008 C-0.37560126 31.34732307 -4.3397723 26.47167049 -6.32373047 20.25708008 C-6.98018459 13.44530294 -7.32782373 7.02297438 -3.32373047 1.25708008 C-2.32373047 0.25708008 -2.32373047 0.25708008 0 0 Z " fill="#A7CA43" transform="translate(6.32373046875,-0.257080078125)"/>
</svg>
