<?xml version="1.0" encoding="UTF-8"?>
<svg version="1.1" xmlns="http://www.w3.org/2000/svg" width="73" height="73">
<path d="M0 0 C0.83096191 -0.00630432 1.66192383 -0.01260864 2.51806641 -0.019104 C3.85877197 -0.01303131 3.85877197 -0.01303131 5.2265625 -0.00683594 C6.60787354 -0.00970612 6.60787354 -0.00970612 8.01708984 -0.01263428 C9.96386997 -0.01399514 11.91065919 -0.01030557 13.85742188 -0.00195312 C16.84005078 0.00874776 19.82207736 -0.00185176 22.8046875 -0.01464844 C24.69531383 -0.01332683 26.58593979 -0.0107644 28.4765625 -0.00683594 C29.81726807 -0.01290863 29.81726807 -0.01290863 31.18505859 -0.019104 C32.43150146 -0.00964752 32.43150146 -0.00964752 33.703125 0 C34.79874756 0.00238678 34.79874756 0.00238678 35.91650391 0.00482178 C37.8515625 0.25878906 37.8515625 0.25878906 40.8515625 2.25878906 C42.73401817 8.96115869 43.28111424 15.6286001 40.8515625 22.25878906 C36.95819071 27.63444129 32.1517405 32.02440562 27.11743164 36.30664062 C19.90232182 42.56825096 16.44807646 48.03574561 13.8515625 57.25878906 C24.35565012 54.37787614 30.31650803 50.78892632 37.62109375 42.70800781 C38.72517578 41.49564453 38.72517578 41.49564453 39.8515625 40.25878906 C40.1815625 40.25878906 40.5115625 40.25878906 40.8515625 40.25878906 C40.90942918 44.05039204 40.94511304 47.84188217 40.9765625 51.63378906 C40.99332031 52.71402344 41.01007812 53.79425781 41.02734375 54.90722656 C41.03701172 56.45410156 41.03701172 56.45410156 41.046875 58.03222656 C41.06258545 59.46187744 41.06258545 59.46187744 41.07861328 60.92041016 C40.8515625 63.25878906 40.8515625 63.25878906 38.8515625 65.25878906 C36.99879456 65.51275635 36.99879456 65.51275635 34.72485352 65.51757812 C33.87379532 65.52388245 33.02273712 65.53018677 32.14588928 65.53668213 C30.76463112 65.53060944 30.76463112 65.53060944 29.35546875 65.52441406 C28.41098373 65.52632751 27.46649872 65.52824097 26.49339294 65.5302124 C24.49355809 65.53157492 22.49371441 65.52787385 20.49389648 65.51953125 C17.42997364 65.50884456 14.36663875 65.51941822 11.30273438 65.53222656 C9.36197787 65.53090475 7.42122173 65.5283419 5.48046875 65.52441406 C4.56165421 65.52846252 3.64283966 65.53251099 2.69618225 65.53668213 C1.41486671 65.52722565 1.41486671 65.52722565 0.10766602 65.51757812 C-1.01912819 65.51519135 -1.01912819 65.51519135 -2.16868591 65.51275635 C-4.1484375 65.25878906 -4.1484375 65.25878906 -7.1484375 63.25878906 C-7.3359375 59.63378906 -7.3359375 59.63378906 -7.1484375 56.25878906 C-5.8284375 56.25878906 -4.5084375 56.25878906 -3.1484375 56.25878906 C-3.1484375 55.26878906 -3.1484375 54.27878906 -3.1484375 53.25878906 C-6.1184375 53.25878906 -9.0884375 53.25878906 -12.1484375 53.25878906 C-12.1484375 51.60878906 -12.1484375 49.95878906 -12.1484375 48.25878906 C-10.4984375 48.25878906 -8.8484375 48.25878906 -7.1484375 48.25878906 C-7.1484375 43.96878906 -7.1484375 39.67878906 -7.1484375 35.25878906 C-5.8284375 35.25878906 -4.5084375 35.25878906 -3.1484375 35.25878906 C-3.1484375 34.59878906 -3.1484375 33.93878906 -3.1484375 33.25878906 C-6.1184375 33.25878906 -9.0884375 33.25878906 -12.1484375 33.25878906 C-12.1484375 31.60878906 -12.1484375 29.95878906 -12.1484375 28.25878906 C-10.4984375 27.92878906 -8.8484375 27.59878906 -7.1484375 27.25878906 C-7.1484375 23.29878906 -7.1484375 19.33878906 -7.1484375 15.25878906 C-5.8284375 15.25878906 -4.5084375 15.25878906 -3.1484375 15.25878906 C-3.1484375 14.26878906 -3.1484375 13.27878906 -3.1484375 12.25878906 C-6.1184375 12.25878906 -9.0884375 12.25878906 -12.1484375 12.25878906 C-12.1484375 10.60878906 -12.1484375 8.95878906 -12.1484375 7.25878906 C-10.4984375 7.25878906 -8.8484375 7.25878906 -7.1484375 7.25878906 C-7.24125 6.08316406 -7.24125 6.08316406 -7.3359375 4.88378906 C-7.2740625 4.01753906 -7.2121875 3.15128906 -7.1484375 2.25878906 C-4.08113309 0.21391946 -3.45651533 0.00752991 0 0 Z M6.8515625 10.25878906 C6.8515625 12.89878906 6.8515625 15.53878906 6.8515625 18.25878906 C14.7715625 18.25878906 22.6915625 18.25878906 30.8515625 18.25878906 C30.8515625 15.61878906 30.8515625 12.97878906 30.8515625 10.25878906 C22.9315625 10.25878906 15.0115625 10.25878906 6.8515625 10.25878906 Z " fill="#D6AA09" transform="translate(16.1484375,3.7412109375)"/>
<path d="M0 0 C1.98 1.65 3.96 3.3 6 5 C1.01595832 11.03331362 -4.41915303 16.5184171 -10 22 C-11.65 20.68 -13.3 19.36 -15 18 C-14.41889329 14.57245533 -13.31446376 12.95461339 -10.83984375 10.546875 C-10.21142578 9.928125 -9.58300781 9.309375 -8.93554688 8.671875 C-8.27619141 8.03765625 -7.61683594 7.4034375 -6.9375 6.75 C-6.27427734 6.1003125 -5.61105469 5.450625 -4.92773438 4.78125 C-3.29170683 3.1805324 -1.64909088 1.58723807 0 0 Z " fill="#D6AA09" transform="translate(57,28)"/>
<path d="M0 0 C2.91387197 0.2913872 3.82565583 0.79452294 5.75 3.0625 C6.36875 4.0215625 6.36875 4.0215625 7 5 C3.39042389 8.2910841 0.87362847 9.54663921 -4 10 C-3.52449439 8.51965236 -3.04448784 7.04074979 -2.5625 5.5625 C-2.29566406 4.73878906 -2.02882812 3.91507813 -1.75390625 3.06640625 C-1 1 -1 1 0 0 Z " fill="#D6AA09" transform="translate(38,47)"/>
<path d="M0 0 C2.6875 0.875 2.6875 0.875 5 2 C4.64950425 5.24208567 4.43778819 6.61527704 1.9375 8.8125 C1.298125 9.204375 0.65875 9.59625 0 10 C-2.0625 8.25 -2.0625 8.25 -4 6 C-3.9375 3.875 -3.9375 3.875 -3 2 C-2.01 1.34 -1.02 0.68 0 0 Z " fill="#D5AA0A" transform="translate(64,22)"/>
</svg>
