<?xml version="1.0" encoding="UTF-8"?>
<svg version="1.1" xmlns="http://www.w3.org/2000/svg" width="74" height="74">
<path d="M0 0 C11.88 0 23.76 0 36 0 C36 15.51 36 31.02 36 47 C24.45 47 12.9 47 1 47 C2.32 44.69 3.64 42.38 5 40 C6.01449399 35.75553617 5.29003646 32.53006664 3.1875 28.6875 C1.5325128 26.65423001 -0.05464251 24.75082174 -2 23 C-1.21625 22.4225 -0.4325 21.845 0.375 21.25 C4.06550209 18.08671249 4.86497312 16.45829029 5.3125 11.625 C4.89410903 6.7716647 3.44783653 3.44783653 0 0 Z M7 8 C7 8.66 7 9.32 7 10 C14.59 10 22.18 10 30 10 C30 9.34 30 8.68 30 8 C22.41 8 14.82 8 7 8 Z M7 13 C7 13.66 7 14.32 7 15 C14.59 15 22.18 15 30 15 C29.67 14.34 29.34 13.68 29 13 C21.74 13 14.48 13 7 13 Z M2 23 C2 23.33 2 23.66 2 24 C11.24 24 20.48 24 30 24 C30 23.67 30 23.34 30 23 C20.76 23 11.52 23 2 23 Z M7 33 C7 33.33 7 33.66 7 34 C14.59 34 22.18 34 30 34 C30 33.67 30 33.34 30 33 C22.41 33 14.82 33 7 33 Z M7 38 C7 38.66 7 39.32 7 40 C14.59 40 22.18 40 30 40 C30 39.34 30 38.68 30 38 C22.41 38 14.82 38 7 38 Z " fill="#164878" transform="translate(28,11)"/>
<path d="M0 0 C0.85857101 0.00141495 1.71714203 0.0028299 2.60173035 0.00428772 C5.33217924 0.00986568 8.06254482 0.02241411 10.79296875 0.03515625 C12.64908735 0.0401741 14.50520725 0.04473651 16.36132812 0.04882812 C20.90107355 0.05982789 25.44075705 0.07707732 29.98046875 0.09765625 C30.03438868 1.88899603 30.07322446 3.68079524 30.10546875 5.47265625 C30.12867188 6.47039062 30.151875 7.468125 30.17578125 8.49609375 C29.98046875 11.09765625 29.98046875 11.09765625 27.98046875 13.09765625 C25.07487881 13.32219369 22.26743473 13.42582707 19.359375 13.43359375 C18.50367416 13.44025055 17.64797333 13.44690735 16.76634216 13.45376587 C14.95484571 13.46389997 13.14331188 13.46858266 11.33178711 13.46826172 C8.55715545 13.4726339 5.7841155 13.50894107 3.00976562 13.546875 C1.25130754 13.55274317 -0.50715813 13.55671256 -2.265625 13.55859375 C-3.09694443 13.57296478 -3.92826385 13.58733582 -4.78477478 13.60214233 C-10.52830465 13.55648909 -10.52830465 13.55648909 -13.04833984 11.20263672 C-14.65250668 7.72573214 -14.20905125 4.88805635 -14.01953125 1.09765625 C-9.33320562 -0.09770836 -4.79923796 -0.02994211 0 0 Z M5.98046875 4.09765625 C5.65046875 5.41765625 5.32046875 6.73765625 4.98046875 8.09765625 C6.96046875 8.09765625 8.94046875 8.09765625 10.98046875 8.09765625 C10.98046875 6.77765625 10.98046875 5.45765625 10.98046875 4.09765625 C9.33046875 4.09765625 7.68046875 4.09765625 5.98046875 4.09765625 Z " fill="#164778" transform="translate(34.01953125,58.90234375)"/>
<path d="M0 0 C1.2148407 -0.00287018 1.2148407 -0.00287018 2.45422363 -0.00579834 C4.16561189 -0.00715861 5.87701051 -0.00347316 7.58837891 0.00488281 C10.20889448 0.01558475 12.82872452 0.0049824 15.44921875 -0.0078125 C17.11198068 -0.00649088 18.77474218 -0.00392843 20.4375 0 C21.22193481 -0.00404846 22.00636963 -0.00809692 22.8145752 -0.01226807 C26.6438038 0.02076254 28.45690682 0.09106288 31.71875 2.265625 C31.71875 4.245625 31.71875 6.225625 31.71875 8.265625 C17.19875 8.265625 2.67875 8.265625 -12.28125 8.265625 C-11.95125 6.285625 -11.62125 4.305625 -11.28125 2.265625 C-7.47781251 -0.26999999 -4.40619726 -0.02274035 0 0 Z M6.71875 4.265625 C6.71875 4.925625 6.71875 5.585625 6.71875 6.265625 C8.69875 6.265625 10.67875 6.265625 12.71875 6.265625 C13.04875 5.605625 13.37875 4.945625 13.71875 4.265625 C11.40875 4.265625 9.09875 4.265625 6.71875 4.265625 Z " fill="#164778" transform="translate(32.28125,0.734375)"/>
<path d="M0 0 C3.15337491 1.77377339 4.5090514 3.19662956 6.375 6.25 C7.2422031 10.06569363 7.33066421 13.32994227 6 17 C3.61187154 20.26469584 0.93669611 22.51582597 -3.03125 23.5078125 C-8.08131053 23.79916215 -11.28539223 22.27239256 -15 19 C-17.10863429 15.35781349 -17.50962203 12.16191328 -17 8 C-12.70299528 0.29502602 -8.42503 -1.09013966 0 0 Z M-13 7 C-14.0402768 10.32888575 -14.34929352 12.11512309 -13.0625 15.375 C-12.711875 15.91125 -12.36125 16.4475 -12 17 C-10.68 16.34 -9.36 15.68 -8 15 C-8.309375 13.8553125 -8.309375 13.8553125 -8.625 12.6875 C-9 10 -9 10 -7 7 C-5.35 7.33 -3.7 7.66 -2 8 C-1.67 9.98 -1.34 11.96 -1 14 C-1.99 14.495 -1.99 14.495 -3 15 C-0.525 15.99 -0.525 15.99 2 17 C3.56935594 13.86128812 3.35201103 11.46144178 3 8 C0.54999553 4.61322911 -0.86392446 3.21301416 -5 2.4375 C-8.76991795 3.14435962 -10.40418092 4.18168215 -13 7 Z " fill="#164778" transform="translate(26,11)"/>
<path d="M0 0 C4.81659662 2.45551985 7.28103603 4.84310809 9 10 C8.90739783 15.27832389 7.7930386 18.31232358 4 22 C0.93801565 23.82063934 -0.85441027 24.00264709 -4.4375 23.9375 C-8.89677764 22.76400588 -10.95688475 21.477846 -14 18 C-15.39276813 13.70498321 -15.55642571 10.27977913 -13.75 6.125 C-9.63585278 1.12924981 -6.73874547 -0.66066132 0 0 Z M-10 6 C-12.06683474 8.60600902 -12.0179269 9.77591379 -11.75 13.125 C-11.23116835 16.10597798 -11.23116835 16.10597798 -9 18 C-7.68 17.01 -6.36 16.02 -5 15 C-5.66 14.34 -6.32 13.68 -7 13 C-6.625 10.375 -6.625 10.375 -6 8 C-3.69 8 -1.38 8 1 8 C0.34 10.64 -0.32 13.28 -1 16 C0.32 16.66 1.64 17.32 3 18 C5.41339891 16.01040592 5.41339891 16.01040592 5.375 12.125 C5.29186157 9.07104827 5.11074442 8.15996416 3.3125 5.5625 C-1.77485704 2.1250966 -4.88897297 2.70622702 -10 6 Z " fill="#164778" transform="translate(24,35)"/>
</svg>
