<?xml version="1.0" encoding="UTF-8"?>
<svg version="1.1" xmlns="http://www.w3.org/2000/svg" width="43" height="43">
<path d="M0 0 C4.00535091 2.44771444 5.66804391 3.92602443 7.0625 8.4375 C6.99118687 12.50234831 6.20649268 14.61145766 4 18 C3.01 18.66 2.02 19.32 1 20 C0.24914894 22.41263295 0.24914894 22.41263295 1 25 C3.94236782 27.21168225 3.94236782 27.21168225 7 29 C7 29.66 7 30.32 7 31 C0.12531171 30.6944583 -4.41447559 29.62439189 -9.44140625 24.54296875 C-13.72993617 19.71684533 -14.31373148 16.34844193 -14.21875 9.9609375 C-13.79182624 6.13387096 -11.84151036 3.8715643 -9.25 1.1875 C-5.91812934 -0.57098729 -3.71653027 -0.51262487 0 0 Z " fill="#E66C3C" transform="translate(35,5)"/>
<path d="M0 0 C5.53846154 3.07692308 5.53846154 3.07692308 7 6 C7.34713404 11.29379413 7.50313108 14.71839535 4 19 C3.01 19.33 2.02 19.66 1 20 C1.3046813 23.65617562 1.70289198 24.7463712 4.5625 27.1875 C5.366875 27.785625 6.17125 28.38375 7 29 C7 29.66 7 30.32 7 31 C-0.11226344 30.61898589 -5.44235904 28.83745542 -10.390625 23.5 C-13.79830717 18.50846556 -13.89535896 12.83738928 -13 7 C-10.3122877 0.55702611 -6.72301599 -0.56025133 0 0 Z " fill="#E66C3C" transform="translate(13,5)"/>
</svg>
