<?xml version="1.0" encoding="UTF-8"?>
<svg width="24" height="24" viewBox="0 0 24 24" fill="none" xmlns="http://www.w3.org/2000/svg">
  <path d="M8.67 3.3c.42-.43 1.04-.57 1.6-.37l2.06.74c.53.2.9.67.95 1.23l.18 2.04c.03.38-.08.76-.32 1.06l-1.08 1.35a11.32 11.32 0 0 0 2.58 2.58l1.35-1.08c.3-.24.68-.35 1.06-.32l2.04.18c.56.05 1.03.42 1.23.95l.74 2.06c.2.56.06 1.18-.37 1.6l-1.2 1.2a2.13 2.13 0 0 1-2 .57 16.35 16.35 0 0 1-7.4-3.8 16.35 16.35 0 0 1-3.8-7.4 2.13 2.13 0 0 1 .57-2l1.2-1.2Z" stroke="#1C274C" stroke-width="1.8" stroke-linecap="round" stroke-linejoin="round"/>
</svg>
