<?xml version="1.0" encoding="UTF-8"?>
<svg version="1.1" xmlns="http://www.w3.org/2000/svg" width="74" height="74">
<path d="M0 0 C1.20348083 -0.00717545 1.20348083 -0.00717545 2.43127441 -0.01449585 C4.12233448 -0.01788817 5.81346071 -0.00873233 7.50439453 0.01220703 C10.08645444 0.03898683 12.66416834 0.01244154 15.24609375 -0.01953125 C16.89323872 -0.01622703 18.54038099 -0.00982052 20.1875 0 C20.95533813 -0.01012115 21.72317627 -0.02024231 22.51428223 -0.03067017 C26.36737945 0.05317901 28.41762534 0.53878952 31.58203125 2.78955078 C34.01200011 6.26169318 34.21329004 8.11184748 34.1875 12.3203125 C34.18492188 13.59003906 34.18234375 14.85976563 34.1796875 16.16796875 C34.13714844 18.14603516 34.13714844 18.14603516 34.09375 20.1640625 C34.09761719 22.14212891 34.09761719 22.14212891 34.1015625 24.16015625 C33.99055085 35.09480408 33.99055085 35.09480408 30.59375 39.6640625 C27.82922967 41.04632266 25.5476137 40.75931637 22.46875 40.7265625 C21.37304688 40.71753906 20.27734375 40.70851562 19.1484375 40.69921875 C18.30539063 40.68761719 17.46234375 40.67601562 16.59375 40.6640625 C16.91182617 41.48028076 16.91182617 41.48028076 17.23632812 42.31298828 C18.19920627 44.80112891 19.14655747 47.29491074 20.09375 49.7890625 C20.42761719 50.645 20.76148438 51.5009375 21.10546875 52.3828125 C22.83234394 56.9643181 24.05112699 60.6819203 23.59375 65.6640625 C21.23144531 65.46875 21.23144531 65.46875 18.59375 64.6640625 C17.30761719 62.546875 17.30761719 62.546875 16.390625 59.7890625 C16.0503125 58.80421875 15.71 57.819375 15.359375 56.8046875 C15.02421875 55.76828125 14.6890625 54.731875 14.34375 53.6640625 C13.65283173 51.62178937 12.96021539 49.58008964 12.265625 47.5390625 C11.9675293 46.62898438 11.66943359 45.71890625 11.36230469 44.78125 C10.77876753 42.7079504 10.77876753 42.7079504 9.59375 41.6640625 C6.62375 49.5840625 3.65375 57.5040625 0.59375 65.6640625 C-1.05625 65.3340625 -2.70625 65.0040625 -4.40625 64.6640625 C-3.80086212 61.30454948 -2.97300919 58.21521887 -1.77734375 55.01953125 C-1.46474609 54.17841797 -1.15214844 53.33730469 -0.83007812 52.47070312 C-0.50458984 51.60638672 -0.17910156 50.74207031 0.15625 49.8515625 C0.48560547 48.96791016 0.81496094 48.08425781 1.15429688 47.17382812 C1.96409601 45.00262755 2.77733893 42.83278361 3.59375 40.6640625 C2.93375 40.6640625 2.27375 40.6640625 1.59375 40.6640625 C1.18901529 36.61671537 1.69032605 34.19226348 3.65625 30.7265625 C5.93488175 26.57705416 5.72744146 24.19882835 4.59375 19.6640625 C2.26829648 18.83354339 0.93820404 18.57012049 -1.46875 19.2265625 C-4.16874251 21.22978275 -5.0850231 23.62524064 -6.40625 26.6640625 C-11.15625 25.7890625 -11.15625 25.7890625 -13.40625 24.6640625 C-13.54155844 21.60007799 -13.6404907 18.54209124 -13.71875 15.4765625 C-13.76064453 14.61224609 -13.80253906 13.74792969 -13.84570312 12.85742188 C-13.86181641 12.01630859 -13.87792969 11.17519531 -13.89453125 10.30859375 C-13.92071533 9.53878174 -13.94689941 8.76896973 -13.97387695 7.97583008 C-12.20247612 0.76146684 -6.47243671 -0.08531555 0 0 Z M-2.40625 10.6640625 C-2.40625 11.9840625 -2.40625 13.3040625 -2.40625 14.6640625 C5.51375 14.6640625 13.43375 14.6640625 21.59375 14.6640625 C21.92375 13.3440625 22.25375 12.0240625 22.59375 10.6640625 C14.34375 10.6640625 6.09375 10.6640625 -2.40625 10.6640625 Z M11.59375 18.6640625 C11.59375 19.9840625 11.59375 21.3040625 11.59375 22.6640625 C13.21838842 22.71801728 14.84353541 22.75683445 16.46875 22.7890625 C17.37367187 22.81226563 18.27859375 22.83546875 19.2109375 22.859375 C21.78181994 22.90731086 21.78181994 22.90731086 23.59375 20.6640625 C23.26375 20.0040625 22.93375 19.3440625 22.59375 18.6640625 C18.96375 18.6640625 15.33375 18.6640625 11.59375 18.6640625 Z M11.59375 26.6640625 C11.59375 27.9840625 11.59375 29.3040625 11.59375 30.6640625 C15.22375 30.6640625 18.85375 30.6640625 22.59375 30.6640625 C22.92375 30.0040625 23.25375 29.3440625 23.59375 28.6640625 C23.26375 28.0040625 22.93375 27.3440625 22.59375 26.6640625 C18.96375 26.6640625 15.33375 26.6640625 11.59375 26.6640625 Z " fill="#5C9C48" transform="translate(40.40625,3.3359375)"/>
<path d="M0 0 C2.875 2.0625 2.875 2.0625 5 5 C5.67528172 9.72697204 5.63734826 12.50143974 3 16.5 C2.01 17.7375 2.01 17.7375 1 19 C2.07314453 19.16822266 2.07314453 19.16822266 3.16796875 19.33984375 C6.19115998 20.04456005 8.56322688 21.13287798 11.3125 22.5625 C12.19550781 23.01753906 13.07851563 23.47257812 13.98828125 23.94140625 C14.65214844 24.29074219 15.31601562 24.64007813 16 25 C18.475 20.545 18.475 20.545 21 16 C22.65 16.33 24.3 16.66 26 17 C25.47785125 21.17719003 23.90323019 24.3319178 21.98046875 28.00390625 C20.85580044 30.1805628 20.85580044 30.1805628 19.875 33.375 C19 36 19 36 17 38 C12.83028311 37.69113208 9.6592063 36.96662189 6 35 C5.97494385 35.72179443 5.9498877 36.44358887 5.92407227 37.18725586 C5.80848698 40.437535 5.68559226 43.68749688 5.5625 46.9375 C5.52318359 48.07380859 5.48386719 49.21011719 5.44335938 50.38085938 C5.40146484 51.46044922 5.35957031 52.54003906 5.31640625 53.65234375 C5.27974854 54.65257568 5.24309082 55.65280762 5.20532227 56.68334961 C5 59 5 59 4 60 C1.15664952 60.09986975 -1.65697163 60.13877881 -4.5 60.125 C-5.29792969 60.12886719 -6.09585937 60.13273437 -6.91796875 60.13671875 C-12.87339233 60.12660767 -12.87339233 60.12660767 -14 59 C-14.2452888 55.70222832 -14.38425077 52.40541591 -14.5234375 49.1015625 C-14.67212956 46.01652132 -14.67212956 46.01652132 -16.51171875 44.57421875 C-19.00329724 41.93876959 -18.47173751 38.62058819 -18.4375 35.1875 C-18.4674707 34.13852539 -18.4674707 34.13852539 -18.49804688 33.06835938 C-18.49325861 27.94970259 -17.30749813 25.07782117 -14 21 C-11.75 19.125 -11.75 19.125 -10 18 C-10.66 17.319375 -11.32 16.63875 -12 15.9375 C-14.50122172 12.26383061 -14.54614532 10.36916255 -14 6 C-12.64700176 2.79553048 -11.67744403 1.40280456 -8.6875 -0.375 C-5.30671597 -1.16122884 -3.32201297 -1.03812905 0 0 Z " fill="#5C9C48" transform="translate(18,9)"/>
</svg>
