<?xml version="1.0" encoding="UTF-8"?>
<svg version="1.1" xmlns="http://www.w3.org/2000/svg" width="36" height="33">
<path d="M0 0 C1.36457178 4.09371535 -0.23628005 6.47423987 -1.9375 10.1875 C-3.4534375 13.5596875 -3.4534375 13.5596875 -5 17 C-0.38 13.7 4.24 10.4 9 7 C10.32 7.66 11.64 8.32 13 9 C11.4007735 14.75981577 9.57539516 20.43384873 7.5625 26.0625 C7.17191406 27.16722656 6.78132813 28.27195312 6.37890625 29.41015625 C5 32 5 32 2.83984375 32.87109375 C2.23269531 32.91363281 1.62554688 32.95617188 1 33 C-0.18956883 28.84773144 0.21039437 26.61274007 1.9375 22.6875 C2.31777344 21.80449219 2.69804687 20.92148437 3.08984375 20.01171875 C3.39019531 19.34785156 3.69054687 18.68398438 4 18 C2.62392469 19.06110696 1.24920168 20.12396768 -0.125 21.1875 C-0.94742187 21.82042969 -1.76984375 22.45335938 -2.6171875 23.10546875 C-4.58480375 24.66988495 -6.41122558 26.29119131 -8.25 28 C-11 30 -11 30 -13.671875 29.625 C-14.82429687 29.315625 -14.82429687 29.315625 -16 29 C-14.07443364 22.14381674 -11.7527517 15.56747868 -9 9 C-9.67546875 9.5053125 -10.3509375 10.010625 -11.046875 10.53125 C-11.93890625 11.1809375 -12.8309375 11.830625 -13.75 12.5 C-14.63171875 13.1496875 -15.5134375 13.799375 -16.421875 14.46875 C-19 16 -19 16 -23 16 C-23.4921875 13.828125 -23.4921875 13.828125 -23 11 C-20.62662665 8.84296208 -17.90136878 7.33514046 -15.125 5.75 C-14.00544922 5.08097656 -14.00544922 5.08097656 -12.86328125 4.3984375 C-5.23424971 -0.13774341 -5.23424971 -0.13774341 0 0 Z " fill="#538CC4" transform="translate(23,0)"/>
</svg>
