<svg xmlns="http://www.w3.org/2000/svg" viewBox="0 0 60 60" role="img" aria-label="China flag">
  <rect width="60" height="60" fill="#DE2910"/>
  <polygon points="14,8 16.8,15 24.5,15 18.3,19.3 20.7,26.4 14,22 7.3,26.4 9.7,19.3 3.5,15 11.2,15" fill="#FFDE00"/>
  <polygon points="27,9 28.7,12.7 32.8,13.1 29.8,15.7 30.6,19.7 27,17.7 23.4,19.7 24.2,15.7 21.2,13.1 25.3,12.7" fill="#FFDE00"/>
  <polygon points="32,16 33.6,19.5 37.4,19.9 34.6,22.3 35.4,26 32,24.1 28.6,26 29.4,22.3 26.6,19.9 30.4,19.5" fill="#FFDE00"/>
  <polygon points="32,26 33.6,29.5 37.4,29.9 34.6,32.3 35.4,36 32,34.1 28.6,36 29.4,32.3 26.6,29.9 30.4,29.5" fill="#FFDE00"/>
  <polygon points="27,34 28.7,37.7 32.8,38.1 29.8,40.7 30.6,44.7 27,42.7 23.4,44.7 24.2,40.7 21.2,38.1 25.3,37.7" fill="#FFDE00"/>
</svg>
