<svg xmlns="http://www.w3.org/2000/svg" viewBox="0 0 60 60" role="img" aria-label="United Kingdom flag">
  <rect width="60" height="60" fill="#012169"/>
  <path d="M0 0L24 0L60 36L60 60L36 60L0 24Z" fill="#FFFFFF"/>
  <path d="M60 0L36 0L0 36L0 60L24 60L60 24Z" fill="#FFFFFF"/>
  <path d="M0 0L18 0L60 42L60 60L42 60L0 18Z" fill="#C8102E"/>
  <path d="M60 0L42 0L0 42L0 60L18 60L60 18Z" fill="#C8102E"/>
  <rect x="24" width="12" height="60" fill="#FFFFFF"/>
  <rect y="24" width="60" height="12" fill="#FFFFFF"/>
  <rect x="26" width="8" height="60" fill="#C8102E"/>
  <rect y="26" width="60" height="8" fill="#C8102E"/>
</svg>
