<svg xmlns="http://www.w3.org/2000/svg" viewBox="0 0 60 60" role="img" aria-label="Hong Kong flag">
  <rect width="60" height="60" fill="#D21034"/>
  <g transform="translate(30 30)" fill="#FFFFFF">
    <path d="M0-15C4-11 4-6 0-2C-4-6-4-11 0-15Z" transform="rotate(0)"/>
    <path d="M0-15C4-11 4-6 0-2C-4-6-4-11 0-15Z" transform="rotate(72)"/>
    <path d="M0-15C4-11 4-6 0-2C-4-6-4-11 0-15Z" transform="rotate(144)"/>
    <path d="M0-15C4-11 4-6 0-2C-4-6-4-11 0-15Z" transform="rotate(216)"/>
    <path d="M0-15C4-11 4-6 0-2C-4-6-4-11 0-15Z" transform="rotate(288)"/>
  </g>
</svg>
